<?xml version="1.0" encoding="UTF-8" standalone="no"?><!DOCTYPE svg PUBLIC "-//W3C//DTD SVG 1.1//EN" "http://www.w3.org/Graphics/SVG/1.1/DTD/svg11.dtd"><svg width="100%" height="100%" viewBox="0 0 1067 1067" version="1.1" xmlns="http://www.w3.org/2000/svg" xmlns:xlink="http://www.w3.org/1999/xlink" xml:space="preserve" xmlns:serif="http://www.serif.com/" style="fill-rule:evenodd;clip-rule:evenodd;stroke-linejoin:round;stroke-miterlimit:2;"><rect id="Prancheta1" x="0" y="0" width="1066.67" height="1066.67" style="fill:none;"/><g id="Prancheta11" serif:id="Prancheta1"><g><path d="M359.6,238.814c-36.033,0 -63.61,9.009 -82.73,27.025c-19.12,18.017 -28.68,43.939 -28.68,77.767l0,20.958l517.891,-0l-0,130.162l-517.891,-0l0,471.01l-155.532,-0l-0,-471.01l-92.658,-0l0,-130.162l92.658,-0l-0,-24.268c-0,-77.95 22.429,-137.148 67.287,-177.593c45.593,-41.182 104.424,-61.772 176.491,-61.772c59.565,-0 116.557,14.707 170.975,44.122l-50.741,119.132c-38.24,-16.914 -70.596,-25.371 -97.07,-25.371Z" style="fill:url(#_Linear1);fill-rule:nonzero;"/><path d="M766.081,364.564c165.898,-0 300.586,134.688 300.586,300.586c-0,165.898 -134.688,300.586 -300.586,300.586c-165.898,-0 -300.586,-134.688 -300.586,-300.586c-0,-165.898 134.688,-300.586 300.586,-300.586Zm-0,150.293c82.949,-0 150.293,67.344 150.293,150.293c-0,82.949 -67.344,150.293 -150.293,150.293c-82.949,-0 -150.293,-67.344 -150.293,-150.293c-0,-82.949 67.344,-150.293 150.293,-150.293Z" style="fill:url(#_Linear2);"/><rect x="918.856" y="364.564" width="147.811" height="601.172" style="fill:url(#_Linear3);"/></g></g><defs><linearGradient id="_Linear1" x1="0" y1="0" x2="1" y2="0" gradientUnits="userSpaceOnUse" gradientTransform="matrix(766.081,0,0,766.081,9.09495e-13,494.726)"><stop offset="0" style="stop-color:#fff;stop-opacity:1"/><stop offset="1" style="stop-color:#b3b3b3;stop-opacity:1"/></linearGradient><linearGradient id="_Linear2" x1="0" y1="0" x2="1" y2="0" gradientUnits="userSpaceOnUse" gradientTransform="matrix(601.172,0,0,601.172,465.495,665.15)"><stop offset="0" style="stop-color:#fff;stop-opacity:1"/><stop offset="1" style="stop-color:#b3b3b3;stop-opacity:1"/></linearGradient><linearGradient id="_Linear3" x1="0" y1="0" x2="1" y2="0" gradientUnits="userSpaceOnUse" gradientTransform="matrix(3.68112e-14,601.172,-601.172,3.68112e-14,992.761,364.564)"><stop offset="0" style="stop-color:#fff;stop-opacity:1"/><stop offset="1" style="stop-color:#b3b3b3;stop-opacity:1"/></linearGradient></defs></svg>