<?xml version="1.0" encoding="UTF-8" standalone="no"?>
<!DOCTYPE svg PUBLIC "-//W3C//DTD SVG 1.1//EN" "http://www.w3.org/Graphics/SVG/1.1/DTD/svg11.dtd">
<svg width="100%" height="100%" viewBox="0 0 209 337" version="1.1" xmlns="http://www.w3.org/2000/svg" xmlns:xlink="http://www.w3.org/1999/xlink" xml:space="preserve" xmlns:serif="http://www.serif.com/" style="fill-rule:evenodd;clip-rule:evenodd;stroke-linejoin:round;stroke-miterlimit:2;">
    <g id="background-mobile" transform="matrix(0.495588,0,0,0.432051,0,0)">
        <rect x="0" y="0" width="420" height="780" style="fill:none;"/>
        <clipPath id="_clip1">
            <rect x="0" y="0" width="420" height="780"/>
        </clipPath>
        <g clip-path="url(#_clip1)">
            <g transform="matrix(1,0,0,1,-81.0115,185.163)">
                <g transform="matrix(6.16745e-16,-11.5534,10.0722,7.07442e-16,-347.052,1006.82)">
                    <g opacity="0.15">
                        <path d="M23.829,45.429L33.457,18.161L33.496,18.229L44.342,37.338L44.304,37.353L23.829,45.429ZM33.472,18.331L23.948,45.305L44.239,37.302L33.472,18.331Z" style="fill:rgb(128,130,133);fill-rule:nonzero;"/>
                    </g>
                    <g opacity="0.15">
                        <path d="M23.793,45.442L23.859,45.346L29.822,36.696L29.841,36.697L44.323,37.285L44.325,37.343L44.302,37.353L23.793,45.442ZM29.859,36.769L23.983,45.291L44.121,37.348L29.859,36.769Z" style="fill:rgb(128,130,133);fill-rule:nonzero;"/>
                    </g>
                    <g opacity="0.15">
                        <path d="M41.883,53.658L41.823,53.665L25.549,55.54L25.56,55.491L29.807,36.724L29.855,36.722L29.871,36.711L41.883,53.658ZM25.64,55.458L41.755,53.602L29.858,36.818L25.64,55.458Z" style="fill:rgb(128,130,133);fill-rule:nonzero;"/>
                    </g>
                    <g opacity="0.15">
                        <path d="M41.788,53.688L41.784,53.632L40.202,34.931L40.261,34.964L57.676,44.696L57.621,44.726L41.788,53.688ZM40.284,35.059L41.85,53.571L57.53,44.696L40.284,35.059Z" style="fill:rgb(128,130,133);fill-rule:nonzero;"/>
                    </g>
                    <g opacity="0.15">
                        <path d="M41.866,53.757L29.78,36.707L40.247,34.958L40.277,34.97L40.279,34.992L41.866,53.757ZM29.903,36.758L41.773,53.503L40.211,35.036L29.903,36.758Z" style="fill:rgb(128,130,133);fill-rule:nonzero;"/>
                    </g>
                    <g opacity="0.15">
                        <path d="M78.905,51.794L57.569,44.723L57.567,44.7L56.423,32.496L56.479,32.507L56.486,32.513L78.939,51.734L78.905,51.794ZM57.636,44.67L78.756,51.67L56.506,32.624L57.636,44.67Z" style="fill:rgb(128,130,133);fill-rule:nonzero;"/>
                    </g>
                    <g opacity="0.15">
                        <path d="M57.644,44.761L57.585,44.728L40.134,34.976L40.237,34.96L56.495,32.499L56.498,32.537L57.644,44.761ZM40.35,35.015L57.561,44.632L56.431,32.58L40.35,35.015Z" style="fill:rgb(128,130,133);fill-rule:nonzero;"/>
                    </g>
                    <g opacity="0.15">
                        <path d="M78.917,51.841L67.642,29.861L67.659,29.812L67.693,29.824L86.311,36.336L78.917,51.841ZM67.752,29.92L78.915,51.68L86.212,36.376L67.752,29.92Z" style="fill:rgb(128,130,133);fill-rule:nonzero;"/>
                    </g>
                    <g opacity="0.15">
                        <path d="M78.894,51.787L56.387,32.521L56.455,32.505L67.733,29.809L67.718,29.855L78.947,51.744L78.894,51.787ZM56.54,32.558L78.802,51.617L67.661,29.899L56.54,32.558Z" style="fill:rgb(128,130,133);fill-rule:nonzero;"/>
                    </g>
                    <g opacity="0.15">
                        <path d="M53.116,71.348L24.959,67.164L25.559,55.498L25.584,55.499L25.612,55.468L53.139,71.282L53.116,71.348ZM25.034,67.104L52.94,71.25L25.627,55.559L25.034,67.104Z" style="fill:rgb(128,130,133);fill-rule:nonzero;"/>
                    </g>
                    <g opacity="0.15">
                        <path d="M53.129,71.391L53.091,71.332L41.763,53.608L41.825,53.591L41.84,53.6L56.191,63.477L56.181,63.503L53.129,71.391ZM41.942,53.758L53.113,71.235L56.104,63.505L41.942,53.758Z" style="fill:rgb(128,130,133);fill-rule:nonzero;"/>
                    </g>
                    <g opacity="0.15">
                        <path d="M53.103,71.344L25.483,55.477L41.815,53.595L41.821,53.628L41.848,53.611L53.151,71.294L53.103,71.344ZM25.706,55.522L53.013,71.21L41.8,53.668L25.706,55.522Z" style="fill:rgb(128,130,133);fill-rule:nonzero;"/>
                    </g>
                    <g opacity="0.15">
                        <path d="M56.106,63.563L56.112,63.488L57.568,44.692L57.608,44.688L57.624,44.667L70.231,53.649L56.106,63.563ZM57.633,44.762L56.188,63.419L70.107,53.649L57.633,44.762Z" style="fill:rgb(128,130,133);fill-rule:nonzero;"/>
                    </g>
                    <g opacity="0.15">
                        <path d="M56.178,63.555L56.127,63.521L41.752,53.627L41.802,53.599L57.644,44.632L57.639,44.699L56.178,63.555ZM41.886,53.633L56.116,63.427L57.561,44.76L41.886,53.633Z" style="fill:rgb(128,130,133);fill-rule:nonzero;"/>
                    </g>
                    <g opacity="0.15">
                        <path d="M78.925,51.796L70.161,53.688L70.148,53.679L57.582,44.726L57.614,44.663L78.928,51.727L78.925,51.796ZM70.177,53.611L78.783,51.753L57.815,44.804L70.177,53.611Z" style="fill:rgb(128,130,133);fill-rule:nonzero;"/>
                    </g>
                    <g opacity="0.15">
                        <path d="M96.734,54.031L96.687,54.042L81.744,57.571L86.223,36.363L86.206,36.334L86.23,36.328L86.245,36.26L86.277,36.315L86.307,36.307L86.297,36.352L96.734,54.031ZM81.837,57.477L96.624,53.985L86.277,36.455L81.837,57.477Z" style="fill:rgb(128,130,133);fill-rule:nonzero;"/>
                    </g>
                    <g opacity="0.15">
                        <path d="M81.805,57.632L81.759,57.54L78.877,51.761L78.884,51.745L86.237,36.327L86.309,36.307L86.297,36.364L81.805,57.632ZM78.956,51.76L81.777,57.417L86.166,36.64L78.956,51.76Z" style="fill:rgb(128,130,133);fill-rule:nonzero;"/>
                    </g>
                    <g opacity="0.15">
                        <path d="M107.514,56.204L96.66,54.04L96.651,54.03L81.359,35.249L81.374,35.175L81.42,35.211L107.543,56.142L107.514,56.204ZM96.699,53.976L107.385,56.106L81.635,35.474L96.699,53.976Z" style="fill:rgb(128,130,133);fill-rule:nonzero;"/>
                    </g>
                    <g opacity="0.15">
                        <path d="M96.651,54.03L81.359,35.249L81.37,35.196L81.405,35.204L86.284,36.326L86.292,36.339L96.71,53.989L96.651,54.03ZM81.49,35.296L96.408,53.619L86.238,36.388L81.49,35.296Z" style="fill:rgb(128,130,133);fill-rule:nonzero;"/>
                    </g>
                    <g opacity="0.15">
                        <path d="M107.523,56.243L107.49,56.187L93.517,32.46L93.591,32.471L117.822,36.157L117.8,36.201L107.523,56.243ZM93.653,32.553L107.518,56.096L117.713,36.213L93.653,32.553Z" style="fill:rgb(128,130,133);fill-rule:nonzero;"/>
                    </g>
                    <g opacity="0.15">
                        <path d="M107.499,56.197L81.317,35.22L93.577,32.472L93.584,32.502L93.616,32.489L107.552,56.152L107.499,56.197ZM81.477,35.257L107.391,56.021L93.568,32.547L81.477,35.257Z" style="fill:rgb(128,130,133);fill-rule:nonzero;"/>
                    </g>
                    <path d="M42.052,53.565C42.088,53.694 42.012,53.827 41.884,53.863C41.756,53.898 41.622,53.823 41.586,53.694C41.55,53.566 41.626,53.432 41.755,53.396C41.883,53.361 42.016,53.437 42.052,53.565Z" style="fill:rgb(188,190,192);fill-rule:nonzero;"/>
                    <path d="M57.842,44.63C57.879,44.762 57.801,44.898 57.669,44.936C57.537,44.972 57.401,44.895 57.364,44.763C57.327,44.631 57.405,44.493 57.536,44.457C57.668,44.42 57.805,44.497 57.842,44.63Z" style="fill:rgb(188,190,192);fill-rule:nonzero;"/>
                    <path d="M42.477,53.447C42.578,53.81 42.366,54.186 42.002,54.287C41.639,54.389 41.263,54.176 41.162,53.812C41.061,53.449 41.274,53.073 41.637,52.972C41.999,52.872 42.375,53.084 42.477,53.447Z" style="fill:rgb(188,190,192);fill-rule:nonzero;"/>
                    <path d="M42.031,53.571C42.064,53.688 41.995,53.809 41.878,53.842C41.761,53.874 41.639,53.806 41.607,53.689C41.574,53.571 41.643,53.45 41.76,53.418C41.877,53.385 41.999,53.454 42.031,53.571Z" style="fill:rgb(188,190,192);fill-rule:nonzero;"/>
                    <path d="M79.553,51.584C79.651,51.935 79.445,52.299 79.093,52.397C78.742,52.495 78.378,52.29 78.28,51.938C78.182,51.586 78.387,51.222 78.739,51.125C79.091,51.026 79.455,51.232 79.553,51.584Z" style="fill:rgb(188,190,192);fill-rule:nonzero;"/>
                    <path d="M57.995,44.587C58.055,44.804 57.929,45.028 57.712,45.088C57.496,45.149 57.272,45.022 57.211,44.805C57.151,44.589 57.278,44.365 57.494,44.304C57.71,44.244 57.935,44.371 57.995,44.587Z" style="fill:rgb(188,190,192);fill-rule:nonzero;"/>
                    <path d="M57.961,44.597C58.016,44.794 57.9,45 57.702,45.055C57.504,45.11 57.299,44.994 57.244,44.796C57.189,44.598 57.305,44.393 57.503,44.338C57.701,44.282 57.906,44.398 57.961,44.597Z" style="fill:rgb(188,190,192);fill-rule:nonzero;"/>
                    <path d="M79.209,51.68C79.253,51.841 79.159,52.008 78.997,52.053C78.836,52.098 78.669,52.003 78.624,51.842C78.579,51.681 78.674,51.514 78.835,51.469C78.996,51.424 79.164,51.518 79.209,51.68Z" style="fill:rgb(188,190,192);fill-rule:nonzero;"/>
                    <path d="M79.644,51.559C79.755,51.96 79.521,52.376 79.119,52.489C78.718,52.6 78.302,52.365 78.189,51.964C78.078,51.562 78.313,51.146 78.714,51.034C79.116,50.922 79.532,51.156 79.644,51.559Z" style="fill:rgb(188,190,192);fill-rule:nonzero;"/>
                    <path d="M53.382,71.24C53.422,71.385 53.338,71.534 53.194,71.573C53.049,71.614 52.901,71.529 52.86,71.385C52.82,71.241 52.904,71.091 53.048,71.051C53.193,71.012 53.342,71.096 53.382,71.24Z" style="fill:rgb(188,190,192);fill-rule:nonzero;"/>
                    <path d="M42.42,53.463C42.512,53.795 42.318,54.139 41.986,54.232C41.654,54.324 41.31,54.129 41.217,53.798C41.125,53.466 41.319,53.122 41.651,53.029C41.984,52.937 42.328,53.131 42.42,53.463Z" style="fill:rgb(188,190,192);fill-rule:nonzero;"/>
                    <path d="M56.373,63.428C56.408,63.553 56.335,63.683 56.21,63.717C56.085,63.752 55.956,63.679 55.921,63.554C55.886,63.429 55.96,63.3 56.085,63.265C56.209,63.229 56.339,63.303 56.373,63.428Z" style="fill:rgb(188,190,192);fill-rule:nonzero;"/>
                    <path d="M53.453,71.221C53.504,71.404 53.397,71.594 53.214,71.645C53.031,71.696 52.841,71.588 52.79,71.406C52.739,71.222 52.846,71.033 53.029,70.982C53.212,70.93 53.402,71.037 53.453,71.221Z" style="fill:rgb(188,190,192);fill-rule:nonzero;"/>
                    <path d="M42.123,53.545C42.17,53.714 42.071,53.889 41.903,53.936C41.735,53.983 41.56,53.884 41.513,53.715C41.466,53.547 41.565,53.372 41.734,53.325C41.902,53.278 42.077,53.377 42.123,53.545Z" style="fill:rgb(188,190,192);fill-rule:nonzero;"/>
                    <path d="M42.368,53.478C42.452,53.781 42.275,54.095 41.971,54.179C41.668,54.264 41.354,54.086 41.269,53.783C41.185,53.48 41.362,53.166 41.665,53.082C41.97,52.997 42.284,53.174 42.368,53.478Z" style="fill:rgb(188,190,192);fill-rule:nonzero;"/>
                    <path d="M53.663,71.162C53.746,71.462 53.571,71.771 53.272,71.854C52.973,71.937 52.663,71.762 52.58,71.462C52.497,71.163 52.672,70.854 52.971,70.771C53.269,70.688 53.58,70.863 53.663,71.162Z" style="fill:rgb(188,190,192);fill-rule:nonzero;"/>
                    <path d="M42.085,53.557C42.126,53.703 42.04,53.856 41.893,53.897C41.746,53.938 41.593,53.852 41.553,53.705C41.512,53.557 41.598,53.405 41.745,53.365C41.892,53.323 42.044,53.409 42.085,53.557Z" style="fill:rgb(188,190,192);fill-rule:nonzero;"/>
                    <path d="M58.204,44.529C58.296,44.86 58.102,45.205 57.77,45.297C57.439,45.39 57.095,45.195 57.003,44.863C56.911,44.531 57.105,44.187 57.436,44.095C57.768,44.003 58.111,44.197 58.204,44.529Z" style="fill:rgb(188,190,192);fill-rule:nonzero;"/>
                    <path d="M70.799,53.475C70.896,53.823 70.692,54.183 70.344,54.28C69.996,54.377 69.636,54.173 69.539,53.825C69.442,53.477 69.646,53.117 69.994,53.02C70.342,52.923 70.702,53.127 70.799,53.475Z" style="fill:rgb(188,190,192);fill-rule:nonzero;"/>
                    <path d="M56.493,63.395C56.546,63.586 56.434,63.784 56.244,63.837C56.052,63.89 55.855,63.778 55.802,63.587C55.749,63.396 55.861,63.198 56.052,63.145C56.242,63.092 56.44,63.204 56.493,63.395Z" style="fill:rgb(188,190,192);fill-rule:nonzero;"/>
                    <path d="M57.894,44.614C57.939,44.775 57.845,44.942 57.683,44.987C57.522,45.032 57.355,44.937 57.31,44.776C57.265,44.615 57.36,44.448 57.521,44.403C57.683,44.358 57.85,44.453 57.894,44.614Z" style="fill:rgb(188,190,192);fill-rule:nonzero;"/>
                    <path d="M58.097,44.559C58.173,44.832 58.013,45.115 57.74,45.191C57.467,45.267 57.184,45.107 57.108,44.835C57.032,44.562 57.192,44.278 57.465,44.203C57.738,44.126 58.021,44.286 58.097,44.559Z" style="fill:rgb(188,190,192);fill-rule:nonzero;"/>
                    <path d="M42.1,53.552C42.143,53.707 42.053,53.867 41.897,53.911C41.742,53.954 41.581,53.863 41.539,53.708C41.496,53.553 41.586,53.393 41.742,53.35C41.896,53.306 42.057,53.396 42.1,53.552Z" style="fill:rgb(188,190,192);fill-rule:nonzero;"/>
                    <path d="M56.441,63.409C56.486,63.571 56.391,63.739 56.229,63.784C56.067,63.83 55.898,63.734 55.853,63.572C55.808,63.41 55.903,63.242 56.065,63.197C56.227,63.152 56.396,63.247 56.441,63.409Z" style="fill:rgb(188,190,192);fill-rule:nonzero;"/>
                    <path d="M58.049,44.571C58.118,44.818 57.973,45.073 57.726,45.141C57.479,45.21 57.224,45.066 57.155,44.819C57.086,44.573 57.231,44.317 57.478,44.249C57.725,44.18 57.981,44.324 58.049,44.571Z" style="fill:rgb(188,190,192);fill-rule:nonzero;"/>
                    <path d="M79.315,51.649C79.377,51.87 79.248,52.098 79.027,52.16C78.806,52.222 78.578,52.092 78.516,51.872C78.454,51.651 78.584,51.423 78.805,51.361C79.025,51.3 79.255,51.429 79.315,51.649Z" style="fill:rgb(188,190,192);fill-rule:nonzero;"/>
                    <path d="M58.078,44.564C58.151,44.826 57.997,45.097 57.735,45.17C57.473,45.242 57.201,45.089 57.128,44.827C57.055,44.565 57.209,44.293 57.471,44.221C57.733,44.148 58.004,44.302 58.078,44.564Z" style="fill:rgb(188,190,192);fill-rule:nonzero;"/>
                    <path d="M70.495,53.559C70.545,53.74 70.439,53.926 70.26,53.976C70.079,54.026 69.893,53.92 69.843,53.741C69.793,53.56 69.899,53.375 70.078,53.324C70.259,53.273 70.444,53.379 70.495,53.559Z" style="fill:rgb(188,190,192);fill-rule:nonzero;"/>
                    <path d="M79.285,51.658C79.342,51.861 79.222,52.072 79.019,52.129C78.816,52.186 78.605,52.066 78.548,51.863C78.491,51.66 78.611,51.449 78.814,51.392C79.018,51.336 79.228,51.455 79.285,51.658Z" style="fill:rgb(188,190,192);fill-rule:nonzero;"/>
                    <path d="M96.88,53.952C96.911,54.062 96.846,54.178 96.735,54.208C96.624,54.239 96.509,54.175 96.478,54.063C96.448,53.952 96.512,53.837 96.624,53.806C96.734,53.776 96.85,53.841 96.88,53.952Z" style="fill:rgb(188,190,192);fill-rule:nonzero;"/>
                    <path d="M82.112,57.435C82.161,57.613 82.057,57.796 81.88,57.846C81.703,57.896 81.519,57.791 81.47,57.614C81.42,57.437 81.525,57.253 81.702,57.204C81.879,57.153 82.063,57.258 82.112,57.435Z" style="fill:rgb(188,190,192);fill-rule:nonzero;"/>
                    <path d="M79.249,51.668C79.301,51.852 79.192,52.043 79.009,52.094C78.825,52.145 78.635,52.037 78.583,51.854C78.532,51.669 78.64,51.479 78.823,51.428C79.008,51.376 79.198,51.484 79.249,51.668Z" style="fill:rgb(188,190,192);fill-rule:nonzero;"/>
                    <path d="M82.279,57.389C82.354,57.659 82.196,57.939 81.926,58.013C81.655,58.088 81.376,57.93 81.301,57.66C81.226,57.39 81.384,57.11 81.655,57.035C81.925,56.96 82.205,57.118 82.279,57.389Z" style="fill:rgb(188,190,192);fill-rule:nonzero;"/>
                    <path d="M97.072,53.898C97.133,54.115 97.006,54.339 96.789,54.4C96.571,54.461 96.347,54.334 96.287,54.117C96.226,53.899 96.353,53.675 96.57,53.615C96.787,53.555 97.012,53.682 97.072,53.898Z" style="fill:rgb(188,190,192);fill-rule:nonzero;"/>
                    <path d="M96.894,53.947C96.927,54.066 96.858,54.189 96.739,54.222C96.62,54.255 96.497,54.186 96.464,54.067C96.432,53.948 96.501,53.825 96.62,53.792C96.738,53.76 96.861,53.829 96.894,53.947Z" style="fill:rgb(188,190,192);fill-rule:nonzero;"/>
                </g>
                <g transform="matrix(6.16745e-16,-11.5534,10.0722,7.07442e-16,-347.052,1006.82)">
                    <g opacity="0.15">
                        <path d="M51.578,31.014L53.284,38.405L53.245,38.365L45.56,48.888L45.518,48.867L51.578,31.014ZM53.215,38.323L51.569,31.187L45.612,48.735L53.215,38.323Z" style="fill:rgb(128,130,133);fill-rule:nonzero;"/>
                    </g>
                    <g opacity="0.15">
                        <path d="M43.153,45.317L43.215,45.334L49.229,47.028L45.532,48.905L45.521,48.887L43.153,45.317ZM49.098,47.041L43.263,45.397L45.548,48.843L49.098,47.041Z" style="fill:rgb(128,130,133);fill-rule:nonzero;"/>
                    </g>
                    <g opacity="0.15">
                        <path d="M27.993,56.352L49.154,47.013L49.175,47.056L44.843,49.213L44.843,49.209L28.012,56.396L27.993,56.352ZM48.234,47.471L31.61,54.807L44.865,49.149L48.234,47.471Z" style="fill:rgb(128,130,133);fill-rule:nonzero;"/>
                    </g>
                    <g opacity="0.15">
                        <path d="M47.618,33.56L45.56,48.887L45.546,48.91L45.524,48.893L38.552,43.146L38.57,43.127L47.618,33.56ZM45.522,48.829L47.551,33.7L38.622,43.143L45.522,48.829Z" style="fill:rgb(128,130,133);fill-rule:nonzero;"/>
                    </g>
                    <g opacity="0.15">
                        <path d="M47.562,33.616L51.617,31.045L51.596,31.109L45.562,48.883L45.555,48.88L45.516,48.871L47.562,33.616ZM51.529,31.157L47.607,33.644L45.596,48.635L51.529,31.157Z" style="fill:rgb(128,130,133);fill-rule:nonzero;"/>
                    </g>
                    <g opacity="0.15">
                        <path d="M33.617,47.736L38.582,43.117L38.596,43.122L49.207,47.024L49.174,47.057L49.165,47.058L33.617,47.736ZM38.593,43.172L33.744,47.682L49.044,47.015L38.593,43.172Z" style="fill:rgb(128,130,133);fill-rule:nonzero;"/>
                    </g>
                    <g opacity="0.15">
                        <path d="M38.596,43.123L49.207,47.025L49.174,47.056L45.536,48.904L45.524,48.894L38.572,43.164L38.596,43.123ZM49.104,47.038L38.71,43.216L45.542,48.847L49.104,47.038Z" style="fill:rgb(128,130,133);fill-rule:nonzero;"/>
                    </g>
                    <g opacity="0.15">
                        <path d="M33.667,47.687L33.679,47.686L49.162,47.011L49.173,47.056L27.938,56.428L33.667,47.687ZM49.038,47.063L33.694,47.732L28.067,56.319L49.038,47.063Z" style="fill:rgb(128,130,133);fill-rule:nonzero;"/>
                    </g>
                    <g opacity="0.15">
                        <path d="M33.227,33.928L33.257,33.979L38.626,43.163L38.58,43.167L31.628,40.799L31.633,40.778L33.227,33.928ZM38.535,43.102L33.247,34.055L31.684,40.768L38.535,43.102Z" style="fill:rgb(128,130,133);fill-rule:nonzero;"/>
                    </g>
                    <g opacity="0.15">
                        <path d="M33.196,33.969L33.237,33.968L47.642,33.605L38.584,43.184L38.568,43.157L33.196,33.969ZM47.528,33.655L33.278,34.014L38.592,43.104L47.528,33.655Z" style="fill:rgb(128,130,133);fill-rule:nonzero;"/>
                    </g>
                    <g opacity="0.15">
                        <path d="M31.62,40.746L38.633,43.135L33.669,47.754L33.658,47.717L31.62,40.746ZM38.542,43.155L31.692,40.821L33.693,47.666L38.542,43.155Z" style="fill:rgb(128,130,133);fill-rule:nonzero;"/>
                    </g>
                    <path d="M45.394,49.019C45.315,48.939 45.315,48.81 45.396,48.73C45.476,48.651 45.605,48.652 45.685,48.732C45.764,48.812 45.764,48.941 45.684,49.02C45.603,49.099 45.474,49.099 45.394,49.019Z" style="fill:rgb(188,190,192);fill-rule:nonzero;"/>
                    <path d="M43.03,45.533C42.933,45.434 42.934,45.276 43.031,45.179C43.129,45.082 43.287,45.082 43.385,45.181C43.482,45.279 43.481,45.437 43.383,45.534C43.285,45.632 43.127,45.631 43.03,45.533Z" style="fill:rgb(188,190,192);fill-rule:nonzero;"/>
                    <path d="M48.941,47.254C48.819,47.132 48.82,46.934 48.943,46.813C49.065,46.692 49.263,46.693 49.384,46.815C49.506,46.938 49.505,47.135 49.382,47.256C49.261,47.378 49.063,47.377 48.941,47.254Z" style="fill:rgb(188,190,192);fill-rule:nonzero;"/>
                    <path d="M45.299,49.113C45.168,48.98 45.169,48.765 45.301,48.634C45.434,48.503 45.648,48.504 45.78,48.637C45.912,48.77 45.911,48.984 45.778,49.116C45.645,49.247 45.431,49.246 45.299,49.113Z" style="fill:rgb(188,190,192);fill-rule:nonzero;"/>
                    <path d="M43.09,45.475C43.025,45.41 43.026,45.304 43.091,45.24C43.156,45.175 43.262,45.176 43.326,45.241C43.391,45.306 43.39,45.412 43.325,45.476C43.26,45.54 43.154,45.54 43.09,45.475Z" style="fill:rgb(188,190,192);fill-rule:nonzero;"/>
                    <path d="M44.785,49.258C44.737,49.209 44.738,49.131 44.786,49.083C44.834,49.035 44.913,49.035 44.961,49.084C45.009,49.133 45.009,49.211 44.96,49.259C44.911,49.307 44.833,49.307 44.785,49.258Z" style="fill:rgb(188,190,192);fill-rule:nonzero;"/>
                    <path d="M48.993,47.203C48.9,47.109 48.901,46.957 48.994,46.864C49.088,46.77 49.24,46.771 49.333,46.865C49.426,46.96 49.426,47.111 49.332,47.205C49.238,47.298 49.086,47.297 48.993,47.203Z" style="fill:rgb(188,190,192);fill-rule:nonzero;"/>
                    <path d="M44.748,49.295C44.68,49.226 44.681,49.114 44.749,49.046C44.818,48.978 44.929,48.979 44.997,49.048C45.065,49.116 45.065,49.228 44.996,49.296C44.927,49.364 44.816,49.363 44.748,49.295Z" style="fill:rgb(188,190,192);fill-rule:nonzero;"/>
                    <path d="M35.345,60.858C35.275,60.788 35.276,60.674 35.346,60.604C35.416,60.534 35.531,60.535 35.6,60.605C35.669,60.675 35.669,60.79 35.599,60.86C35.529,60.93 35.415,60.93 35.345,60.858Z" style="fill:rgb(188,190,192);fill-rule:nonzero;"/>
                    <path d="M35.293,60.91C35.195,60.81 35.196,60.651 35.294,60.554C35.393,60.456 35.553,60.456 35.651,60.555C35.749,60.655 35.748,60.814 35.65,60.911C35.551,61.01 35.391,61.009 35.293,60.91Z" style="fill:rgb(188,190,192);fill-rule:nonzero;"/>
                    <path d="M45.406,49.008C45.333,48.934 45.333,48.815 45.407,48.741C45.481,48.668 45.6,48.668 45.673,48.742C45.746,48.816 45.746,48.935 45.672,49.009C45.598,49.082 45.479,49.081 45.406,49.008Z" style="fill:rgb(188,190,192);fill-rule:nonzero;"/>
                    <path d="M38.367,43.363C38.246,43.241 38.247,43.045 38.369,42.925C38.491,42.804 38.687,42.805 38.807,42.927C38.928,43.049 38.927,43.245 38.805,43.365C38.684,43.486 38.488,43.485 38.367,43.363Z" style="fill:rgb(188,190,192);fill-rule:nonzero;"/>
                    <path d="M45.359,49.054C45.26,48.954 45.261,48.793 45.36,48.695C45.46,48.595 45.621,48.596 45.719,48.696C45.818,48.796 45.817,48.957 45.718,49.055C45.619,49.154 45.458,49.153 45.359,49.054Z" style="fill:rgb(188,190,192);fill-rule:nonzero;"/>
                    <path d="M45.412,49.002C45.342,48.931 45.342,48.816 45.413,48.747C45.484,48.677 45.598,48.677 45.668,48.748C45.738,48.818 45.738,48.933 45.667,49.003C45.596,49.073 45.481,49.072 45.412,49.002Z" style="fill:rgb(188,190,192);fill-rule:nonzero;"/>
                    <path d="M45.353,49.06C45.251,48.956 45.251,48.79 45.354,48.688C45.458,48.585 45.624,48.586 45.726,48.69C45.829,48.794 45.828,48.96 45.725,49.062C45.622,49.163 45.456,49.163 45.353,49.06Z" style="fill:rgb(188,190,192);fill-rule:nonzero;"/>
                    <path d="M48.961,47.234C48.851,47.123 48.852,46.942 48.963,46.832C49.075,46.722 49.255,46.723 49.366,46.834C49.477,46.945 49.476,47.126 49.364,47.236C49.252,47.348 49.072,47.347 48.961,47.234Z" style="fill:rgb(188,190,192);fill-rule:nonzero;"/>
                    <path d="M38.379,43.352C38.265,43.237 38.266,43.051 38.381,42.937C38.496,42.823 38.682,42.824 38.796,42.939C38.91,43.054 38.909,43.24 38.794,43.354C38.679,43.467 38.493,43.466 38.379,43.352Z" style="fill:rgb(188,190,192);fill-rule:nonzero;"/>
                    <path d="M49.03,47.166C48.957,47.093 48.958,46.974 49.031,46.901C49.105,46.828 49.223,46.828 49.296,46.902C49.369,46.975 49.368,47.094 49.294,47.167C49.222,47.24 49.103,47.239 49.03,47.166Z" style="fill:rgb(188,190,192);fill-rule:nonzero;"/>
                    <path d="M48.999,47.197C48.909,47.106 48.91,46.96 49,46.87C49.091,46.78 49.237,46.78 49.328,46.871C49.418,46.962 49.417,47.108 49.327,47.199C49.235,47.289 49.089,47.288 48.999,47.197Z" style="fill:rgb(188,190,192);fill-rule:nonzero;"/>
                    <path d="M45.398,49.016C45.32,48.937 45.321,48.811 45.399,48.733C45.478,48.656 45.604,48.657 45.682,48.735C45.76,48.813 45.759,48.939 45.681,49.017C45.602,49.094 45.476,49.094 45.398,49.016Z" style="fill:rgb(188,190,192);fill-rule:nonzero;"/>
                    <path d="M38.413,43.318C38.317,43.222 38.318,43.066 38.414,42.97C38.51,42.874 38.666,42.875 38.762,42.971C38.858,43.068 38.857,43.223 38.761,43.319C38.664,43.416 38.508,43.415 38.413,43.318Z" style="fill:rgb(188,190,192);fill-rule:nonzero;"/>
                    <path d="M49.087,47.11C49.045,47.067 49.045,46.999 49.087,46.957C49.13,46.915 49.198,46.915 49.24,46.958C49.282,47 49.282,47.069 49.239,47.111C49.197,47.153 49.129,47.152 49.087,47.11Z" style="fill:rgb(188,190,192);fill-rule:nonzero;"/>
                    <path d="M48.983,47.213C48.884,47.113 48.885,46.953 48.984,46.855C49.084,46.756 49.244,46.757 49.342,46.856C49.441,46.956 49.44,47.117 49.341,47.215C49.243,47.313 49.082,47.313 48.983,47.213Z" style="fill:rgb(188,190,192);fill-rule:nonzero;"/>
                    <path d="M38.293,43.436C38.132,43.274 38.133,43.012 38.296,42.851C38.458,42.69 38.72,42.691 38.881,42.853C39.042,43.016 39.041,43.277 38.879,43.438C38.716,43.6 38.455,43.599 38.293,43.436Z" style="fill:rgb(188,190,192);fill-rule:nonzero;"/>
                    <path d="M38.418,43.313C38.325,43.219 38.325,43.067 38.419,42.974C38.513,42.881 38.665,42.882 38.758,42.975C38.851,43.069 38.85,43.221 38.757,43.314C38.663,43.408 38.511,43.408 38.418,43.313Z" style="fill:rgb(188,190,192);fill-rule:nonzero;"/>
                    <path d="M38.32,43.41C38.174,43.263 38.175,43.024 38.322,42.878C38.469,42.732 38.708,42.732 38.854,42.88C39,43.028 38.999,43.266 38.851,43.412C38.705,43.559 38.467,43.558 38.32,43.41Z" style="fill:rgb(188,190,192);fill-rule:nonzero;"/>
                    <path d="M38.469,43.263C38.404,43.197 38.404,43.091 38.47,43.025C38.536,42.96 38.642,42.961 38.707,43.027C38.772,43.093 38.772,43.199 38.706,43.264C38.64,43.33 38.534,43.329 38.469,43.263Z" style="fill:rgb(188,190,192);fill-rule:nonzero;"/>
                    <path d="M38.402,43.328C38.301,43.226 38.302,43.061 38.404,42.96C38.506,42.859 38.671,42.859 38.772,42.961C38.874,43.064 38.873,43.229 38.771,43.33C38.669,43.431 38.504,43.431 38.402,43.328Z" style="fill:rgb(188,190,192);fill-rule:nonzero;"/>
                </g>
                <g transform="matrix(6.16745e-16,-11.5534,10.0722,7.07442e-16,-347.052,1006.82)">
                    <g opacity="0.15">
                        <path d="M100.042,40.95L100.068,40.927L108.134,47.385L108.134,47.424L108.107,47.409L101.862,43.79L101.86,43.786L100.042,40.95ZM107.92,47.259L100.131,41.023L101.888,43.763L107.92,47.259Z" style="fill:rgb(128,130,133);fill-rule:nonzero;"/>
                    </g>
                    <g opacity="0.15">
                        <path d="M101.867,43.751L101.884,43.761L108.261,47.552L108.232,47.567L97.29,53.063L101.867,43.751ZM108.185,47.55L101.882,43.802L97.368,52.984L108.185,47.55Z" style="fill:rgb(128,130,133);fill-rule:nonzero;"/>
                    </g>
                    <g opacity="0.15">
                        <path d="M89.281,54.318L97.343,53.002L97.347,53.018L99.036,59.139L99.001,59.121L89.281,54.318ZM97.316,53.043L89.397,54.336L98.98,59.071L97.316,53.043Z" style="fill:rgb(128,130,133);fill-rule:nonzero;"/>
                    </g>
                    <g opacity="0.15">
                        <path d="M89.294,54.311L91.741,54.233L91.746,54.243L93.75,58.281L93.72,58.29L93.712,58.283L89.294,54.311ZM91.719,54.269L89.385,54.344L93.667,58.194L91.719,54.269Z" style="fill:rgb(128,130,133);fill-rule:nonzero;"/>
                    </g>
                    <g opacity="0.15">
                        <path d="M84.435,56.335L84.454,56.33L91.753,54.226L91.747,54.254L88.85,68.706L84.435,56.335ZM91.706,54.276L84.482,56.359L88.839,68.572L91.706,54.276Z" style="fill:rgb(128,130,133);fill-rule:nonzero;"/>
                    </g>
                    <g opacity="0.15">
                        <path d="M84.465,56.313L84.476,56.339L87.381,63.093L87.388,63.095L87.386,63.105L87.4,63.14L87.381,63.133L87.375,63.173L87.352,63.122L80.728,60.636L80.746,60.616L84.465,56.313ZM87.334,63.076L84.454,56.381L80.791,60.62L87.334,63.076Z" style="fill:rgb(128,130,133);fill-rule:nonzero;"/>
                    </g>
                    <g opacity="0.15">
                        <path d="M92.632,43.948L105.305,37.392L105.278,37.443L101.893,43.782L101.89,43.794L101.875,43.794L92.641,43.982L92.632,43.948ZM105.219,37.477L92.717,43.944L101.864,43.758L105.219,37.477Z" style="fill:rgb(128,130,133);fill-rule:nonzero;"/>
                    </g>
                    <g opacity="0.15">
                        <path d="M100.032,40.936L100.047,40.926L105.252,37.42L105.277,37.444L101.892,43.783L101.883,43.824L101.86,43.787L100.032,40.936ZM105.212,37.49L100.081,40.946L101.874,43.741L105.212,37.49Z" style="fill:rgb(128,130,133);fill-rule:nonzero;"/>
                    </g>
                    <g opacity="0.15">
                        <path d="M92.695,41.033L92.73,41.027L97.347,53.02L97.34,53.083L97.313,53.031L92.622,43.968L92.622,43.963L92.695,41.033ZM97.197,52.728L92.729,41.124L92.658,43.96L97.197,52.728Z" style="fill:rgb(128,130,133);fill-rule:nonzero;"/>
                    </g>
                    <g opacity="0.15">
                        <path d="M92.61,43.947L101.904,43.758L101.891,43.784L97.346,53.028L97.34,53.083L97.313,53.031L92.61,43.947ZM101.846,43.795L92.669,43.982L97.329,52.984L101.846,43.795Z" style="fill:rgb(128,130,133);fill-rule:nonzero;"/>
                    </g>
                    <g opacity="0.15">
                        <path d="M92.696,41.029L92.731,41.03L94.557,50.746L94.547,50.753L89.33,54.356L89.319,54.329L89.321,54.323L92.696,41.029ZM94.518,50.73L92.711,41.116L89.368,54.285L94.518,50.73Z" style="fill:rgb(128,130,133);fill-rule:nonzero;"/>
                    </g>
                    <g opacity="0.15">
                        <path d="M92.71,40.975L92.73,41.028L97.354,53.038L97.332,53.042L89.328,54.349L89.32,54.329L89.322,54.323L92.71,40.975ZM97.305,53.009L92.717,41.093L89.363,54.306L97.305,53.009Z" style="fill:rgb(128,130,133);fill-rule:nonzero;"/>
                    </g>
                    <g opacity="0.15">
                        <path d="M82.389,50.684L94.574,50.721L94.552,50.749L91.741,54.266L91.729,54.27L91.723,54.268L82.382,50.719L82.389,50.684ZM94.5,50.756L82.487,50.72L91.724,54.23L94.5,50.756Z" style="fill:rgb(128,130,133);fill-rule:nonzero;"/>
                    </g>
                    <g opacity="0.15">
                        <path d="M89.279,54.348L94.527,50.724L94.551,50.749L91.74,54.266L91.729,54.269L89.279,54.348ZM94.447,50.822L89.399,54.307L91.721,54.232L94.447,50.822Z" style="fill:rgb(128,130,133);fill-rule:nonzero;"/>
                    </g>
                    <g opacity="0.15">
                        <path d="M82.386,50.639L84.477,56.341L84.459,56.352L84.459,56.366L81.049,56.378L81.054,56.357L82.386,50.639ZM84.434,56.329L82.393,50.764L81.094,56.34L84.434,56.329Z" style="fill:rgb(128,130,133);fill-rule:nonzero;"/>
                    </g>
                    <g opacity="0.15">
                        <path d="M82.358,50.671L82.395,50.685L91.786,54.253L91.735,54.268L84.448,56.369L84.442,56.353L82.358,50.671ZM91.673,54.248L82.42,50.732L84.471,56.325L91.673,54.248Z" style="fill:rgb(128,130,133);fill-rule:nonzero;"/>
                    </g>
                    <g opacity="0.15">
                        <path d="M81.055,56.341L81.072,56.341L84.5,56.329L84.474,56.359L80.771,60.644L80.743,60.648L80.744,60.626L81.055,56.341ZM84.42,56.365L81.088,56.377L80.782,60.575L84.42,56.365Z" style="fill:rgb(128,130,133);fill-rule:nonzero;"/>
                    </g>
                    <g opacity="0.15">
                        <path d="M88.957,41.621L95.589,41.45L92.636,43.992L92.627,43.978L88.957,41.621ZM95.489,41.488L89.075,41.654L92.638,43.942L95.489,41.488Z" style="fill:rgb(128,130,133);fill-rule:nonzero;"/>
                    </g>
                    <g opacity="0.15">
                        <path d="M92.614,43.958L92.631,43.948L95.532,41.452L105.255,37.417L105.27,37.45L92.652,43.978L92.637,43.991L92.614,43.958ZM95.549,41.484L92.769,43.877L104.875,37.615L95.549,41.484Z" style="fill:rgb(128,130,133);fill-rule:nonzero;"/>
                    </g>
                    <g opacity="0.15">
                        <path d="M89.003,41.622L89.014,41.62L92.762,41.007L92.727,41.045L86.872,47.45L86.842,47.431L89.003,41.622ZM92.665,41.06L89.029,41.654L86.907,47.358L92.665,41.06Z" style="fill:rgb(128,130,133);fill-rule:nonzero;"/>
                    </g>
                    <g opacity="0.15">
                        <path d="M88.968,41.627L92.733,41.012L92.658,43.996L88.968,41.627ZM92.695,41.055L89.065,41.648L92.623,43.932L92.695,41.055Z" style="fill:rgb(128,130,133);fill-rule:nonzero;"/>
                    </g>
                    <g opacity="0.15">
                        <path d="M80.314,53.423L86.854,47.417L94.543,50.722L94.536,50.738L94.54,50.757L80.314,53.423ZM86.861,47.459L80.43,53.364L94.475,50.731L86.861,47.459Z" style="fill:rgb(128,130,133);fill-rule:nonzero;"/>
                    </g>
                    <g opacity="0.15">
                        <path d="M92.725,40.995L92.732,41.03L94.559,50.754L94.536,50.757L94.531,50.755L86.829,47.444L86.846,47.425L92.725,40.995ZM94.514,50.709L92.703,41.072L86.889,47.431L94.514,50.709Z" style="fill:rgb(128,130,133);fill-rule:nonzero;"/>
                    </g>
                    <g opacity="0.15">
                        <path d="M77.43,51.745L82.432,50.674L80.378,53.417L77.43,51.745ZM82.346,50.729L77.53,51.76L80.369,53.369L82.346,50.729Z" style="fill:rgb(128,130,133);fill-rule:nonzero;"/>
                    </g>
                    <g opacity="0.15">
                        <path d="M82.375,50.69L82.389,50.698L82.389,50.683L94.537,50.72L94.541,50.755L80.331,53.419L82.375,50.69ZM94.348,50.756L82.398,50.72L80.415,53.367L94.348,50.756Z" style="fill:rgb(128,130,133);fill-rule:nonzero;"/>
                    </g>
                    <g opacity="0.15">
                        <path d="M77.462,51.701L77.493,51.742L81.105,56.374L81.073,56.377L77.402,56.74L77.402,56.72L77.462,51.701ZM81.037,56.345L77.497,51.805L77.438,56.7L81.037,56.345Z" style="fill:rgb(128,130,133);fill-rule:nonzero;"/>
                    </g>
                    <g opacity="0.15">
                        <path d="M77.447,51.741L82.413,50.678L82.406,50.706L81.089,56.363L81.078,56.36L81.057,56.37L77.447,51.741ZM82.365,50.726L77.511,51.765L81.063,56.319L82.365,50.726Z" style="fill:rgb(128,130,133);fill-rule:nonzero;"/>
                    </g>
                    <g opacity="0.15">
                        <path d="M84.875,36.238L84.906,36.223L89.057,41.662L89.024,41.657L86.806,44.82L84.875,36.238ZM88.994,41.638L84.928,36.311L86.824,44.734L88.994,41.638Z" style="fill:rgb(128,130,133);fill-rule:nonzero;"/>
                    </g>
                    <g opacity="0.15">
                        <path d="M81.728,45.262L86.833,44.758L86.833,44.778L86.876,47.466L81.724,45.297L81.728,45.262ZM86.798,44.797L81.803,45.291L86.84,47.411L86.798,44.797Z" style="fill:rgb(128,130,133);fill-rule:nonzero;"/>
                    </g>
                    <g opacity="0.15">
                        <path d="M89.002,41.627L89.033,41.644L86.875,47.444L86.84,47.438L86.797,44.771L86.801,44.766L89.002,41.627ZM86.874,47.343L88.951,41.763L86.833,44.784L86.874,47.343Z" style="fill:rgb(128,130,133);fill-rule:nonzero;"/>
                    </g>
                    <g opacity="0.15">
                        <path d="M72.526,45.392L72.568,45.392L81.752,45.262L81.748,45.283L80.389,53.41L80.367,53.413L80.361,53.407L72.526,45.392ZM81.709,45.298L72.61,45.427L80.361,53.356L81.709,45.298Z" style="fill:rgb(128,130,133);fill-rule:nonzero;"/>
                    </g>
                    <g opacity="0.15">
                        <path d="M81.717,45.254L81.738,45.263L86.891,47.433L86.87,47.452L80.39,53.403L80.389,53.41L80.381,53.411L80.347,53.443L80.352,53.416L80.319,53.42L80.357,53.386L81.717,45.254ZM86.825,47.443L81.744,45.304L80.399,53.344L86.825,47.443Z" style="fill:rgb(128,130,133);fill-rule:nonzero;"/>
                    </g>
                    <g opacity="0.15">
                        <path d="M72.552,45.417L72.582,45.398L77.495,51.744L77.5,51.757L77.492,51.765L76.245,53.112L72.552,45.417ZM77.456,51.752L72.657,45.554L76.254,53.048L77.456,51.752Z" style="fill:rgb(128,130,133);fill-rule:nonzero;"/>
                    </g>
                    <g opacity="0.15">
                        <path d="M72.554,45.42L72.581,45.397L80.386,53.381L80.365,53.409L77.466,51.764L77.464,51.761L72.554,45.42ZM80.271,53.315L72.772,45.644L77.491,51.739L80.271,53.315Z" style="fill:rgb(128,130,133);fill-rule:nonzero;"/>
                    </g>
                    <g opacity="0.15">
                        <path d="M77.498,51.706L77.437,56.742L77.406,56.736L77.402,56.725L76.229,53.075L77.498,51.706ZM77.403,56.611L77.461,51.798L76.27,53.083L77.403,56.611Z" style="fill:rgb(128,130,133);fill-rule:nonzero;"/>
                    </g>
                    <g opacity="0.15">
                        <path d="M82.158,37.714L82.189,37.76L86.831,44.767L86.806,44.791L81.999,42.268L82,42.257L82.158,37.714ZM86.762,44.729L82.191,37.828L82.037,42.248L86.762,44.729Z" style="fill:rgb(128,130,133);fill-rule:nonzero;"/>
                    </g>
                    <g opacity="0.15">
                        <path d="M82.148,37.764L84.904,36.207L84.91,36.23L86.833,44.773L86.831,44.773L86.819,44.778L86.805,44.792L86.8,44.788L86.799,44.784L82.148,37.764ZM84.88,36.262L82.2,37.777L86.776,44.686L84.88,36.262Z" style="fill:rgb(128,130,133);fill-rule:nonzero;"/>
                    </g>
                    <g opacity="0.15">
                        <path d="M76.312,41.07L82.037,42.243L82.035,42.259L81.748,45.291L81.728,45.301L81.719,45.294L76.297,41.102L76.312,41.07ZM81.998,42.272L76.382,41.121L81.716,45.246L81.998,42.272Z" style="fill:rgb(128,130,133);fill-rule:nonzero;"/>
                    </g>
                    <g opacity="0.15">
                        <path d="M82.002,42.229L86.877,44.789L81.732,45.298L81.726,45.279L81.712,45.277L82.002,42.229ZM86.754,44.766L82.033,42.287L81.751,45.261L86.754,44.766Z" style="fill:rgb(128,130,133);fill-rule:nonzero;"/>
                    </g>
                    <g opacity="0.15">
                        <path d="M69.769,46.966L76.297,41.075L76.323,41.1L72.606,45.392L72.635,45.392L72.576,45.425L69.788,46.995L69.769,46.966ZM76.105,41.296L69.912,46.884L72.556,45.395L76.105,41.296Z" style="fill:rgb(128,130,133);fill-rule:nonzero;"/>
                    </g>
                    <g opacity="0.15">
                        <path d="M76.307,41.063L76.321,41.073L81.783,45.296L81.731,45.297L72.529,45.427L72.555,45.397L76.307,41.063ZM81.679,45.263L76.312,41.113L72.608,45.391L81.679,45.263Z" style="fill:rgb(128,130,133);fill-rule:nonzero;"/>
                    </g>
                    <g opacity="0.15">
                        <path d="M69.75,46.976L69.771,46.964L72.576,45.385L72.584,45.402L76.276,53.095L76.243,53.099L76.237,53.093L69.75,46.976ZM72.56,45.435L69.81,46.983L76.192,53.002L72.56,45.435Z" style="fill:rgb(128,130,133);fill-rule:nonzero;"/>
                    </g>
                    <g opacity="0.15">
                        <path d="M65.655,37.902L65.69,37.893L69.79,46.957L69.835,46.947L69.793,46.99L66.406,50.492L66.404,50.451L65.655,37.902ZM69.759,46.976L65.698,37.997L66.438,50.409L69.759,46.976Z" style="fill:rgb(128,130,133);fill-rule:nonzero;"/>
                    </g>
                    <g opacity="0.15">
                        <path d="M65.642,37.873L76.345,41.081L76.322,41.102L69.79,46.995L69.769,47L69.763,46.986L65.642,37.873ZM76.273,41.096L65.706,37.93L69.786,46.95L76.273,41.096Z" style="fill:rgb(128,130,133);fill-rule:nonzero;"/>
                    </g>
                    <g opacity="0.15">
                        <path d="M67.491,29.838L67.526,29.847L65.677,37.968L65.677,37.967L64.472,43.062L64.436,43.054L67.491,29.838Z" style="fill:rgb(128,130,133);fill-rule:nonzero;"/>
                    </g>
                    <g opacity="0.15">
                        <path d="M65.656,37.897L65.691,37.9L66.439,50.45L66.404,50.456L64.435,43.058L64.436,43.054L65.656,37.897ZM66.394,50.274L65.664,38.024L64.474,43.058L66.394,50.274Z" style="fill:rgb(128,130,133);fill-rule:nonzero;"/>
                    </g>
                    <g opacity="0.15">
                        <path d="M64.381,37.966L64.389,37.961L66.021,36.786L66.009,36.833L64.472,43.062L64.437,43.058L64.381,37.966ZM65.962,36.872L64.417,37.984L64.471,42.916L65.962,36.872Z" style="fill:rgb(128,130,133);fill-rule:nonzero;"/>
                    </g>
                    <g opacity="0.15">
                        <path d="M67.491,29.838L67.526,29.846L66.008,36.832L64.471,43.061L64.436,43.053L67.491,29.838ZM65.019,40.694L65.974,36.824L66.916,32.484L65.019,40.694Z" style="fill:rgb(128,130,133);fill-rule:nonzero;"/>
                    </g>
                    <g opacity="0.15">
                        <path d="M57.225,42.371L57.27,42.343L64.416,37.944L64.473,43.078L64.452,43.076L57.225,42.371ZM64.381,38.007L57.335,42.345L64.436,43.038L64.381,38.007Z" style="fill:rgb(128,130,133);fill-rule:nonzero;"/>
                    </g>
                    <path d="M101.708,43.941C101.617,43.849 101.618,43.701 101.71,43.609C101.802,43.518 101.95,43.519 102.042,43.611C102.133,43.703 102.132,43.851 102.04,43.943C101.948,44.034 101.8,44.034 101.708,43.941Z" style="fill:rgb(188,190,192);fill-rule:nonzero;"/>
                    <path d="M97.283,53.069C97.257,53.043 97.258,53.002 97.283,52.976C97.308,52.951 97.35,52.951 97.376,52.976C97.401,53.002 97.401,53.043 97.376,53.069C97.35,53.095 97.309,53.095 97.283,53.069Z" style="fill:rgb(188,190,192);fill-rule:nonzero;"/>
                    <path d="M101.774,43.876C101.718,43.82 101.719,43.73 101.775,43.676C101.831,43.62 101.921,43.621 101.975,43.677C102.031,43.733 102.03,43.823 101.974,43.877C101.919,43.933 101.829,43.933 101.774,43.876Z" style="fill:rgb(188,190,192);fill-rule:nonzero;"/>
                    <path d="M98.846,59.267C98.757,59.177 98.758,59.033 98.848,58.944C98.938,58.854 99.082,58.855 99.171,58.945C99.261,59.035 99.26,59.18 99.17,59.269C99.08,59.357 98.935,59.356 98.846,59.267Z" style="fill:rgb(188,190,192);fill-rule:nonzero;"/>
                    <path d="M89.257,54.409C89.211,54.363 89.212,54.29 89.258,54.244C89.303,54.199 89.377,54.199 89.422,54.245C89.468,54.291 89.468,54.365 89.422,54.41C89.376,54.455 89.302,54.455 89.257,54.409Z" style="fill:rgb(188,190,192);fill-rule:nonzero;"/>
                    <path d="M97.203,53.148C97.134,53.078 97.134,52.965 97.204,52.896C97.274,52.827 97.387,52.827 97.456,52.897C97.525,52.966 97.525,53.08 97.455,53.149C97.386,53.219 97.272,53.219 97.203,53.148Z" style="fill:rgb(188,190,192);fill-rule:nonzero;"/>
                    <path d="M98.866,59.247C98.788,59.168 98.788,59.041 98.867,58.963C98.946,58.885 99.073,58.886 99.151,58.965C99.229,59.043 99.228,59.17 99.149,59.248C99.071,59.326 98.944,59.326 98.866,59.247Z" style="fill:rgb(188,190,192);fill-rule:nonzero;"/>
                    <path d="M93.628,58.364C93.575,58.311 93.576,58.225 93.629,58.173C93.683,58.12 93.768,58.121 93.82,58.174C93.873,58.227 93.873,58.313 93.819,58.365C93.767,58.418 93.681,58.418 93.628,58.364Z" style="fill:rgb(188,190,192);fill-rule:nonzero;"/>
                    <path d="M91.555,54.424C91.46,54.327 91.46,54.172 91.557,54.076C91.654,53.98 91.81,53.98 91.905,54.077C92,54.174 92,54.329 91.903,54.426C91.807,54.521 91.65,54.521 91.555,54.424Z" style="fill:rgb(188,190,192);fill-rule:nonzero;"/>
                    <path d="M89.254,54.413C89.206,54.365 89.207,54.288 89.254,54.241C89.302,54.194 89.379,54.194 89.426,54.242C89.473,54.29 89.473,54.366 89.425,54.413C89.377,54.461 89.301,54.46 89.254,54.413Z" style="fill:rgb(188,190,192);fill-rule:nonzero;"/>
                    <path d="M93.618,58.374C93.56,58.315 93.561,58.222 93.62,58.164C93.678,58.106 93.771,58.106 93.83,58.165C93.888,58.223 93.887,58.317 93.829,58.375C93.77,58.433 93.677,58.432 93.618,58.374Z" style="fill:rgb(188,190,192);fill-rule:nonzero;"/>
                    <path d="M88.752,68.731C88.701,68.68 88.702,68.597 88.753,68.546C88.805,68.495 88.887,68.495 88.938,68.547C88.989,68.598 88.989,68.681 88.937,68.732C88.886,68.783 88.803,68.782 88.752,68.731Z" style="fill:rgb(188,190,192);fill-rule:nonzero;"/>
                    <path d="M84.299,56.507C84.211,56.418 84.211,56.275 84.3,56.187C84.389,56.099 84.532,56.1 84.62,56.188C84.708,56.277 84.707,56.42 84.618,56.508C84.529,56.596 84.387,56.596 84.299,56.507Z" style="fill:rgb(188,190,192);fill-rule:nonzero;"/>
                    <path d="M91.612,54.367C91.548,54.303 91.548,54.197 91.613,54.133C91.678,54.069 91.783,54.069 91.847,54.134C91.911,54.199 91.911,54.304 91.846,54.368C91.781,54.433 91.677,54.433 91.612,54.367Z" style="fill:rgb(188,190,192);fill-rule:nonzero;"/>
                    <path d="M88.762,68.722C88.717,68.676 88.717,68.602 88.763,68.557C88.809,68.511 88.883,68.512 88.928,68.558C88.974,68.604 88.973,68.677 88.927,68.723C88.882,68.768 88.808,68.768 88.762,68.722Z" style="fill:rgb(188,190,192);fill-rule:nonzero;"/>
                    <path d="M87.225,63.25C87.146,63.171 87.147,63.043 87.226,62.965C87.305,62.886 87.433,62.887 87.511,62.966C87.589,63.045 87.589,63.173 87.51,63.251C87.431,63.329 87.303,63.329 87.225,63.25Z" style="fill:rgb(188,190,192);fill-rule:nonzero;"/>
                    <path d="M80.676,60.712C80.629,60.665 80.629,60.589 80.676,60.543C80.723,60.496 80.799,60.496 80.846,60.543C80.892,60.591 80.892,60.666 80.845,60.713C80.798,60.759 80.722,60.759 80.676,60.712Z" style="fill:rgb(188,190,192);fill-rule:nonzero;"/>
                    <path d="M84.386,56.42C84.346,56.379 84.346,56.315 84.387,56.274C84.427,56.234 84.493,56.235 84.533,56.275C84.573,56.316 84.573,56.382 84.533,56.421C84.491,56.461 84.426,56.46 84.386,56.42Z" style="fill:rgb(188,190,192);fill-rule:nonzero;"/>
                    <path d="M87.147,63.326C87.026,63.205 87.027,63.009 87.149,62.888C87.27,62.768 87.466,62.769 87.587,62.89C87.707,63.012 87.706,63.208 87.585,63.328C87.464,63.449 87.268,63.448 87.147,63.326Z" style="fill:rgb(188,190,192);fill-rule:nonzero;"/>
                    <path d="M101.754,43.896C101.688,43.829 101.689,43.721 101.755,43.655C101.822,43.589 101.93,43.59 101.996,43.656C102.062,43.723 102.061,43.831 101.995,43.897C101.928,43.964 101.82,43.963 101.754,43.896Z" style="fill:rgb(188,190,192);fill-rule:nonzero;"/>
                    <path d="M92.502,44.101C92.427,44.025 92.427,43.902 92.503,43.827C92.579,43.752 92.702,43.752 92.777,43.828C92.853,43.904 92.852,44.027 92.776,44.103C92.7,44.178 92.577,44.177 92.502,44.101Z" style="fill:rgb(188,190,192);fill-rule:nonzero;"/>
                    <path d="M101.726,43.924C101.645,43.842 101.645,43.709 101.728,43.627C101.81,43.546 101.943,43.546 102.025,43.628C102.106,43.711 102.106,43.844 102.023,43.926C101.94,44.007 101.808,44.007 101.726,43.924Z" style="fill:rgb(188,190,192);fill-rule:nonzero;"/>
                    <path d="M101.744,43.906C101.673,43.834 101.673,43.717 101.745,43.645C101.817,43.574 101.934,43.574 102.006,43.646C102.077,43.718 102.077,43.835 102.005,43.907C101.933,43.979 101.815,43.979 101.744,43.906Z" style="fill:rgb(188,190,192);fill-rule:nonzero;"/>
                    <path d="M101.724,43.926C101.641,43.843 101.642,43.708 101.725,43.625C101.809,43.542 101.944,43.543 102.027,43.626C102.11,43.71 102.109,43.845 102.025,43.928C101.941,44.011 101.807,44.01 101.724,43.926Z" style="fill:rgb(188,190,192);fill-rule:nonzero;"/>
                    <path d="M97.205,53.146C97.137,53.078 97.137,52.966 97.206,52.897C97.274,52.829 97.386,52.83 97.454,52.899C97.522,52.967 97.522,53.079 97.453,53.147C97.385,53.216 97.273,53.216 97.205,53.146Z" style="fill:rgb(188,190,192);fill-rule:nonzero;"/>
                    <path d="M92.505,44.098C92.431,44.024 92.432,43.904 92.506,43.829C92.581,43.755 92.701,43.756 92.776,43.83C92.849,43.905 92.849,44.025 92.774,44.1C92.699,44.173 92.579,44.173 92.505,44.098Z" style="fill:rgb(188,190,192);fill-rule:nonzero;"/>
                    <path d="M97.212,53.141C97.147,53.076 97.148,52.97 97.213,52.906C97.277,52.842 97.383,52.842 97.447,52.907C97.511,52.972 97.511,53.078 97.446,53.142C97.381,53.206 97.276,53.206 97.212,53.141Z" style="fill:rgb(188,190,192);fill-rule:nonzero;"/>
                    <path d="M97.258,53.094C97.219,53.055 97.219,52.99 97.259,52.951C97.298,52.912 97.363,52.912 97.402,52.952C97.441,52.991 97.441,53.056 97.401,53.095C97.361,53.134 97.297,53.134 97.258,53.094Z" style="fill:rgb(188,190,192);fill-rule:nonzero;"/>
                    <path d="M101.731,43.918C101.653,43.839 101.654,43.712 101.733,43.633C101.812,43.555 101.94,43.556 102.018,43.635C102.096,43.714 102.095,43.842 102.016,43.92C101.937,43.998 101.81,43.997 101.731,43.918Z" style="fill:rgb(188,190,192);fill-rule:nonzero;"/>
                    <path d="M92.534,44.068C92.476,44.01 92.477,43.917 92.535,43.858C92.594,43.8 92.687,43.801 92.745,43.859C92.803,43.918 92.803,44.011 92.744,44.069C92.686,44.127 92.592,44.127 92.534,44.068Z" style="fill:rgb(188,190,192);fill-rule:nonzero;"/>
                    <path d="M97.112,53.238C96.993,53.119 96.994,52.925 97.114,52.806C97.234,52.687 97.427,52.688 97.547,52.808C97.665,52.928 97.665,53.121 97.545,53.24C97.425,53.359 97.231,53.358 97.112,53.238Z" style="fill:rgb(188,190,192);fill-rule:nonzero;"/>
                    <path d="M89.21,54.456C89.139,54.385 89.139,54.268 89.211,54.197C89.282,54.126 89.399,54.127 89.47,54.198C89.541,54.27 89.54,54.386 89.468,54.457C89.396,54.528 89.28,54.528 89.21,54.456Z" style="fill:rgb(188,190,192);fill-rule:nonzero;"/>
                    <path d="M94.453,50.821C94.407,50.775 94.408,50.7 94.454,50.654C94.501,50.608 94.575,50.609 94.621,50.655C94.667,50.701 94.667,50.776 94.62,50.822C94.574,50.868 94.499,50.868 94.453,50.821Z" style="fill:rgb(188,190,192);fill-rule:nonzero;"/>
                    <path d="M89.273,54.393C89.236,54.357 89.237,54.297 89.273,54.261C89.31,54.225 89.369,54.225 89.405,54.262C89.442,54.298 89.441,54.358 89.405,54.394C89.368,54.43 89.31,54.43 89.273,54.393Z" style="fill:rgb(188,190,192);fill-rule:nonzero;"/>
                    <path d="M89.18,54.485C89.093,54.397 89.093,54.255 89.181,54.168C89.27,54.08 89.412,54.081 89.499,54.169C89.587,54.258 89.586,54.399 89.498,54.487C89.409,54.574 89.268,54.574 89.18,54.485Z" style="fill:rgb(188,190,192);fill-rule:nonzero;"/>
                    <path d="M97.194,53.157C97.12,53.082 97.12,52.962 97.195,52.887C97.27,52.813 97.39,52.813 97.465,52.888C97.539,52.962 97.539,53.084 97.464,53.158C97.39,53.232 97.269,53.232 97.194,53.157Z" style="fill:rgb(188,190,192);fill-rule:nonzero;"/>
                    <path d="M89.228,54.438C89.167,54.376 89.168,54.277 89.229,54.216C89.291,54.155 89.389,54.155 89.45,54.217C89.511,54.279 89.51,54.377 89.449,54.439C89.388,54.499 89.289,54.499 89.228,54.438Z" style="fill:rgb(188,190,192);fill-rule:nonzero;"/>
                    <path d="M91.493,54.485C91.363,54.354 91.364,54.143 91.495,54.013C91.626,53.883 91.837,53.884 91.967,54.015C92.097,54.146 92.096,54.357 91.965,54.487C91.834,54.617 91.623,54.616 91.493,54.485Z" style="fill:rgb(188,190,192);fill-rule:nonzero;"/>
                    <path d="M82.288,50.802C82.233,50.746 82.233,50.656 82.289,50.601C82.345,50.546 82.435,50.546 82.49,50.602C82.545,50.658 82.545,50.748 82.489,50.803C82.434,50.857 82.344,50.857 82.288,50.802Z" style="fill:rgb(188,190,192);fill-rule:nonzero;"/>
                    <path d="M94.398,50.876C94.322,50.8 94.322,50.675 94.399,50.6C94.476,50.524 94.6,50.524 94.676,50.601C94.752,50.677 94.751,50.802 94.674,50.878C94.599,50.953 94.475,50.953 94.398,50.876Z" style="fill:rgb(188,190,192);fill-rule:nonzero;"/>
                    <path d="M91.544,54.436C91.441,54.332 91.442,54.166 91.545,54.064C91.649,53.962 91.815,53.962 91.917,54.066C92.019,54.17 92.019,54.336 91.915,54.438C91.812,54.539 91.645,54.539 91.544,54.436Z" style="fill:rgb(188,190,192);fill-rule:nonzero;"/>
                    <path d="M91.541,54.438C91.437,54.334 91.438,54.166 91.543,54.062C91.647,53.958 91.815,53.959 91.919,54.064C92.023,54.168 92.022,54.336 91.917,54.44C91.812,54.543 91.644,54.542 91.541,54.438Z" style="fill:rgb(188,190,192);fill-rule:nonzero;"/>
                    <path d="M89.269,54.398C89.23,54.358 89.23,54.294 89.269,54.256C89.309,54.217 89.373,54.218 89.412,54.257C89.451,54.296 89.45,54.36 89.411,54.399C89.371,54.438 89.308,54.438 89.269,54.398Z" style="fill:rgb(188,190,192);fill-rule:nonzero;"/>
                    <path d="M94.378,50.896C94.291,50.808 94.291,50.666 94.379,50.579C94.468,50.491 94.609,50.492 94.697,50.58C94.784,50.668 94.783,50.81 94.695,50.897C94.607,50.985 94.465,50.984 94.378,50.896Z" style="fill:rgb(188,190,192);fill-rule:nonzero;"/>
                    <path d="M91.626,54.354C91.569,54.296 91.57,54.204 91.627,54.147C91.685,54.09 91.777,54.09 91.834,54.148C91.892,54.206 91.891,54.298 91.833,54.355C91.776,54.411 91.683,54.411 91.626,54.354Z" style="fill:rgb(188,190,192);fill-rule:nonzero;"/>
                    <path d="M84.315,56.489C84.237,56.41 84.237,56.282 84.317,56.204C84.396,56.125 84.524,56.126 84.602,56.205C84.681,56.284 84.68,56.412 84.601,56.491C84.522,56.569 84.394,56.568 84.315,56.489Z" style="fill:rgb(188,190,192);fill-rule:nonzero;"/>
                    <path d="M81.007,56.423C80.971,56.388 80.972,56.33 81.007,56.295C81.043,56.259 81.101,56.26 81.136,56.295C81.171,56.331 81.171,56.389 81.135,56.424C81.1,56.459 81.042,56.459 81.007,56.423Z" style="fill:rgb(188,190,192);fill-rule:nonzero;"/>
                    <path d="M82.317,50.772C82.278,50.733 82.278,50.668 82.318,50.629C82.357,50.59 82.422,50.59 82.461,50.63C82.5,50.669 82.5,50.734 82.46,50.772C82.421,50.813 82.356,50.813 82.317,50.772Z" style="fill:rgb(188,190,192);fill-rule:nonzero;"/>
                    <path d="M84.327,56.479C84.255,56.406 84.255,56.288 84.328,56.215C84.401,56.143 84.519,56.144 84.592,56.217C84.664,56.289 84.663,56.407 84.591,56.48C84.518,56.552 84.399,56.552 84.327,56.479Z" style="fill:rgb(188,190,192);fill-rule:nonzero;"/>
                    <path d="M84.298,56.507C84.21,56.418 84.211,56.275 84.3,56.187C84.389,56.098 84.532,56.099 84.62,56.188C84.708,56.277 84.708,56.42 84.619,56.508C84.53,56.597 84.387,56.596 84.298,56.507Z" style="fill:rgb(188,190,192);fill-rule:nonzero;"/>
                    <path d="M91.595,54.384C91.522,54.31 91.522,54.19 91.596,54.115C91.671,54.042 91.791,54.042 91.866,54.117C91.939,54.191 91.939,54.311 91.864,54.386C91.789,54.459 91.669,54.459 91.595,54.384Z" style="fill:rgb(188,190,192);fill-rule:nonzero;"/>
                    <path d="M82.246,50.843C82.168,50.765 82.169,50.637 82.248,50.559C82.326,50.481 82.454,50.482 82.532,50.561C82.61,50.639 82.609,50.767 82.53,50.845C82.451,50.923 82.324,50.922 82.246,50.843Z" style="fill:rgb(188,190,192);fill-rule:nonzero;"/>
                    <path d="M84.291,56.515C84.198,56.422 84.199,56.272 84.292,56.179C84.386,56.086 84.536,56.087 84.628,56.181C84.721,56.274 84.72,56.424 84.627,56.517C84.533,56.608 84.383,56.607 84.291,56.515Z" style="fill:rgb(188,190,192);fill-rule:nonzero;"/>
                    <path d="M80.559,60.828C80.449,60.716 80.45,60.536 80.561,60.426C80.672,60.316 80.852,60.317 80.962,60.428C81.073,60.539 81.072,60.719 80.961,60.829C80.849,60.94 80.669,60.939 80.559,60.828Z" style="fill:rgb(188,190,192);fill-rule:nonzero;"/>
                    <path d="M84.281,56.523C84.183,56.425 84.184,56.266 84.283,56.169C84.381,56.072 84.54,56.073 84.636,56.171C84.734,56.27 84.733,56.428 84.635,56.525C84.537,56.622 84.379,56.622 84.281,56.523Z" style="fill:rgb(188,190,192);fill-rule:nonzero;"/>
                    <path d="M80.934,56.495C80.859,56.42 80.86,56.297 80.935,56.222C81.011,56.147 81.133,56.148 81.209,56.223C81.284,56.299 81.283,56.422 81.207,56.497C81.132,56.572 81.009,56.571 80.934,56.495Z" style="fill:rgb(188,190,192);fill-rule:nonzero;"/>
                    <path d="M80.638,60.749C80.572,60.682 80.572,60.572 80.639,60.505C80.707,60.439 80.816,60.439 80.883,60.506C80.949,60.574 80.949,60.683 80.882,60.75C80.813,60.817 80.705,60.816 80.638,60.749Z" style="fill:rgb(188,190,192);fill-rule:nonzero;"/>
                    <path d="M92.373,44.229C92.227,44.082 92.227,43.844 92.375,43.698C92.522,43.552 92.761,43.553 92.907,43.7C93.053,43.847 93.052,44.086 92.904,44.232C92.757,44.377 92.519,44.376 92.373,44.229Z" style="fill:rgb(188,190,192);fill-rule:nonzero;"/>
                    <path d="M92.523,44.08C92.459,44.015 92.459,43.911 92.524,43.848C92.588,43.784 92.693,43.785 92.756,43.849C92.82,43.914 92.819,44.018 92.755,44.082C92.691,44.146 92.587,44.146 92.523,44.08Z" style="fill:rgb(188,190,192);fill-rule:nonzero;"/>
                    <path d="M92.552,44.052C92.503,44.003 92.504,43.924 92.553,43.876C92.602,43.828 92.68,43.828 92.729,43.877C92.777,43.926 92.777,44.004 92.728,44.053C92.679,44.101 92.6,44.101 92.552,44.052Z" style="fill:rgb(188,190,192);fill-rule:nonzero;"/>
                    <path d="M92.55,44.054C92.501,44.004 92.502,43.924 92.551,43.875C92.601,43.826 92.681,43.826 92.73,43.876C92.779,43.925 92.779,44.005 92.729,44.055C92.68,44.104 92.6,44.103 92.55,44.054Z" style="fill:rgb(188,190,192);fill-rule:nonzero;"/>
                    <path d="M86.703,47.592C86.618,47.506 86.618,47.368 86.704,47.283C86.79,47.198 86.929,47.198 87.013,47.284C87.098,47.37 87.098,47.508 87.012,47.593C86.926,47.678 86.788,47.678 86.703,47.592Z" style="fill:rgb(188,190,192);fill-rule:nonzero;"/>
                    <path d="M92.503,44.1C92.429,44.025 92.429,43.903 92.504,43.827C92.58,43.753 92.702,43.753 92.776,43.829C92.851,43.904 92.85,44.026 92.775,44.1C92.7,44.176 92.578,44.175 92.503,44.1Z" style="fill:rgb(188,190,192);fill-rule:nonzero;"/>
                    <path d="M94.479,50.796C94.448,50.764 94.448,50.712 94.48,50.681C94.511,50.65 94.563,50.65 94.594,50.681C94.626,50.713 94.625,50.765 94.594,50.796C94.562,50.827 94.512,50.827 94.479,50.796Z" style="fill:rgb(188,190,192);fill-rule:nonzero;"/>
                    <path d="M80.299,53.467C80.259,53.426 80.259,53.361 80.3,53.32C80.341,53.28 80.406,53.28 80.446,53.321C80.487,53.362 80.486,53.427 80.446,53.468C80.405,53.508 80.34,53.508 80.299,53.467Z" style="fill:rgb(188,190,192);fill-rule:nonzero;"/>
                    <path d="M86.767,47.529C86.716,47.478 86.716,47.396 86.767,47.345C86.818,47.295 86.9,47.295 86.951,47.346C87,47.397 87,47.479 86.949,47.53C86.898,47.58 86.816,47.58 86.767,47.529Z" style="fill:rgb(188,190,192);fill-rule:nonzero;"/>
                    <path d="M94.271,51.001C94.127,50.855 94.127,50.618 94.274,50.473C94.42,50.328 94.657,50.329 94.802,50.476C94.947,50.622 94.946,50.859 94.799,51.004C94.653,51.148 94.417,51.147 94.271,51.001Z" style="fill:rgb(188,190,192);fill-rule:nonzero;"/>
                    <path d="M94.397,50.877C94.321,50.8 94.322,50.675 94.399,50.599C94.476,50.523 94.6,50.524 94.676,50.6C94.752,50.677 94.752,50.802 94.675,50.878C94.599,50.954 94.475,50.953 94.397,50.877Z" style="fill:rgb(188,190,192);fill-rule:nonzero;"/>
                    <path d="M86.728,47.565C86.658,47.494 86.658,47.38 86.73,47.308C86.801,47.238 86.916,47.238 86.987,47.309C87.057,47.38 87.057,47.496 86.986,47.567C86.915,47.638 86.8,47.638 86.728,47.565Z" style="fill:rgb(188,190,192);fill-rule:nonzero;"/>
                    <path d="M94.41,50.864C94.34,50.794 94.341,50.68 94.411,50.611C94.481,50.541 94.595,50.542 94.664,50.612C94.734,50.682 94.733,50.796 94.663,50.865C94.593,50.936 94.479,50.935 94.41,50.864Z" style="fill:rgb(188,190,192);fill-rule:nonzero;"/>
                    <path d="M82.259,50.831C82.187,50.759 82.188,50.643 82.26,50.571C82.332,50.499 82.448,50.5 82.52,50.572C82.592,50.644 82.591,50.76 82.519,50.833C82.446,50.904 82.33,50.903 82.259,50.831Z" style="fill:rgb(188,190,192);fill-rule:nonzero;"/>
                    <path d="M77.372,51.859C77.313,51.799 77.314,51.704 77.373,51.645C77.433,51.586 77.528,51.587 77.587,51.646C77.646,51.706 77.645,51.801 77.585,51.86C77.526,51.919 77.431,51.918 77.372,51.859Z" style="fill:rgb(188,190,192);fill-rule:nonzero;"/>
                    <path d="M80.174,53.591C80.065,53.482 80.066,53.304 80.176,53.195C80.285,53.086 80.463,53.087 80.572,53.197C80.681,53.307 80.68,53.484 80.57,53.593C80.46,53.702 80.282,53.701 80.174,53.591Z" style="fill:rgb(188,190,192);fill-rule:nonzero;"/>
                    <path d="M82.253,50.836C82.179,50.761 82.18,50.64 82.255,50.565C82.33,50.491 82.451,50.492 82.526,50.567C82.6,50.641 82.599,50.762 82.524,50.837C82.448,50.912 82.328,50.911 82.253,50.836Z" style="fill:rgb(188,190,192);fill-rule:nonzero;"/>
                    <path d="M82.281,50.81C82.221,50.749 82.221,50.653 82.281,50.594C82.342,50.534 82.438,50.534 82.498,50.595C82.557,50.655 82.557,50.751 82.496,50.81C82.436,50.869 82.34,50.869 82.281,50.81Z" style="fill:rgb(188,190,192);fill-rule:nonzero;"/>
                    <path d="M94.38,50.895C94.294,50.808 94.295,50.667 94.382,50.582C94.469,50.496 94.609,50.496 94.695,50.583C94.781,50.67 94.781,50.811 94.694,50.896C94.606,50.981 94.466,50.981 94.38,50.895Z" style="fill:rgb(188,190,192);fill-rule:nonzero;"/>
                    <path d="M80.28,53.485C80.23,53.434 80.23,53.351 80.281,53.301C80.332,53.25 80.415,53.251 80.465,53.302C80.516,53.353 80.515,53.435 80.464,53.485C80.413,53.536 80.331,53.536 80.28,53.485Z" style="fill:rgb(188,190,192);fill-rule:nonzero;"/>
                    <path d="M82.22,50.869C82.127,50.776 82.128,50.625 82.222,50.532C82.315,50.439 82.466,50.44 82.559,50.533C82.652,50.627 82.651,50.778 82.557,50.871C82.464,50.964 82.312,50.963 82.22,50.869Z" style="fill:rgb(188,190,192);fill-rule:nonzero;"/>
                    <path d="M80.929,56.5C80.852,56.422 80.852,56.295 80.931,56.217C81.009,56.14 81.136,56.141 81.213,56.219C81.291,56.297 81.29,56.424 81.212,56.501C81.134,56.579 81.007,56.578 80.929,56.5Z" style="fill:rgb(188,190,192);fill-rule:nonzero;"/>
                    <path d="M77.152,56.986C77.005,56.838 77.006,56.598 77.154,56.452C77.302,56.306 77.542,56.306 77.688,56.455C77.835,56.602 77.834,56.842 77.685,56.988C77.538,57.136 77.299,57.135 77.152,56.986Z" style="fill:rgb(188,190,192);fill-rule:nonzero;"/>
                    <path d="M77.277,51.952C77.167,51.842 77.168,51.661 77.279,51.551C77.39,51.441 77.57,51.442 77.68,51.553C77.79,51.664 77.789,51.844 77.678,51.954C77.567,52.064 77.388,52.064 77.277,51.952Z" style="fill:rgb(188,190,192);fill-rule:nonzero;"/>
                    <path d="M80.918,56.511C80.834,56.427 80.835,56.29 80.919,56.206C81.004,56.122 81.141,56.123 81.225,56.208C81.308,56.292 81.308,56.429 81.223,56.513C81.139,56.596 81.002,56.596 80.918,56.511Z" style="fill:rgb(188,190,192);fill-rule:nonzero;"/>
                    <path d="M80.916,56.513C80.831,56.427 80.832,56.289 80.918,56.204C81.003,56.119 81.142,56.12 81.227,56.205C81.311,56.291 81.311,56.43 81.225,56.514C81.139,56.599 81.001,56.599 80.916,56.513Z" style="fill:rgb(188,190,192);fill-rule:nonzero;"/>
                    <path d="M82.267,50.822C82.201,50.755 82.202,50.646 82.269,50.58C82.336,50.513 82.445,50.514 82.511,50.581C82.578,50.648 82.577,50.757 82.51,50.824C82.442,50.891 82.334,50.89 82.267,50.822Z" style="fill:rgb(188,190,192);fill-rule:nonzero;"/>
                    <path d="M77.365,51.865C77.302,51.802 77.304,51.701 77.366,51.638C77.429,51.576 77.53,51.576 77.593,51.639C77.656,51.702 77.656,51.804 77.592,51.866C77.529,51.929 77.428,51.929 77.365,51.865Z" style="fill:rgb(188,190,192);fill-rule:nonzero;"/>
                    <path d="M80.931,56.499C80.854,56.421 80.854,56.296 80.932,56.219C81.01,56.142 81.135,56.142 81.212,56.22C81.289,56.298 81.289,56.423 81.211,56.5C81.133,56.577 81.008,56.577 80.931,56.499Z" style="fill:rgb(188,190,192);fill-rule:nonzero;"/>
                    <path d="M86.728,44.863C86.68,44.815 86.68,44.738 86.729,44.69C86.777,44.642 86.854,44.642 86.902,44.691C86.95,44.739 86.95,44.816 86.901,44.864C86.853,44.912 86.776,44.912 86.728,44.863Z" style="fill:rgb(188,190,192);fill-rule:nonzero;"/>
                    <path d="M86.709,47.586C86.627,47.504 86.628,47.37 86.71,47.289C86.793,47.207 86.926,47.208 87.007,47.29C87.089,47.373 87.088,47.506 87.006,47.587C86.924,47.669 86.791,47.668 86.709,47.586Z" style="fill:rgb(188,190,192);fill-rule:nonzero;"/>
                    <path d="M81.632,45.378C81.578,45.323 81.578,45.236 81.633,45.181C81.688,45.127 81.776,45.128 81.829,45.182C81.883,45.237 81.883,45.325 81.828,45.379C81.773,45.433 81.685,45.432 81.632,45.378Z" style="fill:rgb(188,190,192);fill-rule:nonzero;"/>
                    <path d="M86.724,44.868C86.674,44.817 86.674,44.736 86.725,44.685C86.776,44.635 86.857,44.635 86.908,44.686C86.958,44.737 86.958,44.818 86.907,44.869C86.855,44.919 86.774,44.919 86.724,44.868Z" style="fill:rgb(188,190,192);fill-rule:nonzero;"/>
                    <path d="M86.687,47.606C86.594,47.512 86.594,47.36 86.689,47.267C86.783,47.174 86.935,47.174 87.028,47.269C87.121,47.363 87.121,47.514 87.027,47.608C86.933,47.701 86.781,47.701 86.687,47.606Z" style="fill:rgb(188,190,192);fill-rule:nonzero;"/>
                    <path d="M86.764,47.531C86.712,47.479 86.713,47.395 86.765,47.343C86.817,47.291 86.901,47.292 86.953,47.344C87.005,47.396 87.004,47.48 86.952,47.532C86.899,47.584 86.815,47.583 86.764,47.531Z" style="fill:rgb(188,190,192);fill-rule:nonzero;"/>
                    <path d="M86.623,44.968C86.518,44.862 86.519,44.691 86.625,44.585C86.731,44.48 86.902,44.481 87.008,44.587C87.113,44.694 87.112,44.864 87.006,44.97C86.899,45.074 86.728,45.074 86.623,44.968Z" style="fill:rgb(188,190,192);fill-rule:nonzero;"/>
                    <path d="M86.736,47.559C86.67,47.492 86.671,47.383 86.737,47.317C86.804,47.251 86.913,47.252 86.979,47.318C87.045,47.385 87.044,47.494 86.978,47.56C86.911,47.626 86.803,47.625 86.736,47.559Z" style="fill:rgb(188,190,192);fill-rule:nonzero;"/>
                    <path d="M80.222,53.543C80.139,53.46 80.14,53.325 80.223,53.242C80.307,53.16 80.442,53.16 80.525,53.244C80.607,53.327 80.607,53.462 80.523,53.545C80.439,53.627 80.305,53.627 80.222,53.543Z" style="fill:rgb(188,190,192);fill-rule:nonzero;"/>
                    <path d="M72.463,45.514C72.405,45.456 72.405,45.362 72.464,45.304C72.522,45.246 72.616,45.246 72.674,45.305C72.732,45.364 72.732,45.457 72.673,45.515C72.614,45.572 72.52,45.572 72.463,45.514Z" style="fill:rgb(188,190,192);fill-rule:nonzero;"/>
                    <path d="M81.581,45.428C81.5,45.345 81.5,45.212 81.583,45.131C81.665,45.049 81.798,45.049 81.88,45.132C81.961,45.214 81.961,45.348 81.878,45.429C81.796,45.511 81.663,45.51 81.581,45.428Z" style="fill:rgb(188,190,192);fill-rule:nonzero;"/>
                    <path d="M80.28,53.485C80.229,53.434 80.229,53.351 80.28,53.3C80.332,53.249 80.415,53.249 80.466,53.301C80.517,53.352 80.517,53.435 80.465,53.486C80.414,53.537 80.331,53.537 80.28,53.485Z" style="fill:rgb(188,190,192);fill-rule:nonzero;"/>
                    <path d="M80.321,53.444C80.294,53.416 80.294,53.37 80.322,53.342C80.35,53.314 80.395,53.314 80.424,53.342C80.452,53.37 80.451,53.416 80.423,53.444C80.395,53.473 80.35,53.473 80.321,53.444Z" style="fill:rgb(188,190,192);fill-rule:nonzero;"/>
                    <path d="M86.578,47.716C86.425,47.561 86.426,47.312 86.581,47.158C86.735,47.005 86.984,47.006 87.138,47.16C87.291,47.315 87.29,47.564 87.136,47.718C86.98,47.871 86.731,47.87 86.578,47.716Z" style="fill:rgb(188,190,192);fill-rule:nonzero;"/>
                    <path d="M81.662,45.348C81.624,45.31 81.625,45.249 81.662,45.211C81.7,45.174 81.762,45.174 81.799,45.212C81.837,45.25 81.837,45.311 81.799,45.349C81.761,45.386 81.699,45.386 81.662,45.348Z" style="fill:rgb(188,190,192);fill-rule:nonzero;"/>
                    <path d="M80.263,53.503C80.203,53.441 80.203,53.344 80.264,53.283C80.326,53.223 80.423,53.223 80.484,53.284C80.544,53.346 80.544,53.443 80.483,53.504C80.421,53.563 80.323,53.563 80.263,53.503Z" style="fill:rgb(188,190,192);fill-rule:nonzero;"/>
                    <path d="M77.366,51.864C77.304,51.802 77.305,51.702 77.368,51.639C77.43,51.577 77.53,51.579 77.592,51.64C77.654,51.703 77.654,51.803 77.591,51.865C77.528,51.927 77.428,51.927 77.366,51.864Z" style="fill:rgb(188,190,192);fill-rule:nonzero;"/>
                    <path d="M76.136,53.192C76.073,53.129 76.073,53.028 76.137,52.965C76.2,52.902 76.301,52.902 76.364,52.966C76.427,53.029 76.427,53.13 76.363,53.193C76.3,53.256 76.198,53.255 76.136,53.192Z" style="fill:rgb(188,190,192);fill-rule:nonzero;"/>
                    <path d="M72.426,45.551C72.348,45.472 72.348,45.345 72.427,45.267C72.506,45.189 72.633,45.19 72.711,45.268C72.789,45.347 72.788,45.474 72.71,45.552C72.631,45.63 72.504,45.63 72.426,45.551Z" style="fill:rgb(188,190,192);fill-rule:nonzero;"/>
                    <path d="M77.309,51.922C77.215,51.828 77.216,51.676 77.31,51.582C77.405,51.488 77.557,51.489 77.651,51.583C77.745,51.678 77.744,51.83 77.649,51.924C77.554,52.018 77.401,52.017 77.309,51.922Z" style="fill:rgb(188,190,192);fill-rule:nonzero;"/>
                    <path d="M77.36,51.871C77.295,51.805 77.296,51.699 77.361,51.634C77.426,51.569 77.533,51.57 77.598,51.635C77.662,51.7 77.662,51.807 77.597,51.872C77.531,51.938 77.426,51.937 77.36,51.871Z" style="fill:rgb(188,190,192);fill-rule:nonzero;"/>
                    <path d="M80.262,53.504C80.202,53.443 80.202,53.344 80.263,53.282C80.324,53.221 80.423,53.222 80.484,53.283C80.546,53.345 80.545,53.443 80.483,53.505C80.422,53.565 80.322,53.565 80.262,53.504Z" style="fill:rgb(188,190,192);fill-rule:nonzero;"/>
                    <path d="M72.409,45.567C72.322,45.479 72.322,45.336 72.41,45.25C72.498,45.163 72.64,45.164 72.727,45.252C72.814,45.34 72.813,45.481 72.725,45.568C72.638,45.655 72.496,45.655 72.409,45.567Z" style="fill:rgb(188,190,192);fill-rule:nonzero;"/>
                    <path d="M77.409,51.822C77.371,51.783 77.371,51.72 77.41,51.682C77.448,51.644 77.51,51.644 77.549,51.683C77.588,51.721 77.587,51.784 77.549,51.822C77.51,51.861 77.447,51.86 77.409,51.822Z" style="fill:rgb(188,190,192);fill-rule:nonzero;"/>
                    <path d="M77.324,56.815C77.272,56.762 77.272,56.677 77.325,56.625C77.378,56.572 77.464,56.573 77.515,56.626C77.568,56.679 77.567,56.764 77.514,56.816C77.462,56.868 77.377,56.868 77.324,56.815Z" style="fill:rgb(188,190,192);fill-rule:nonzero;"/>
                    <path d="M77.354,51.877C77.286,51.808 77.286,51.696 77.355,51.628C77.424,51.56 77.536,51.56 77.604,51.629C77.672,51.698 77.671,51.81 77.603,51.878C77.534,51.946 77.423,51.945 77.354,51.877Z" style="fill:rgb(188,190,192);fill-rule:nonzero;"/>
                    <path d="M76.041,53.286C75.928,53.171 75.928,52.985 76.043,52.871C76.158,52.757 76.344,52.758 76.458,52.873C76.572,52.988 76.571,53.174 76.456,53.288C76.341,53.401 76.155,53.4 76.041,53.286Z" style="fill:rgb(188,190,192);fill-rule:nonzero;"/>
                    <path d="M77.279,56.859C77.203,56.782 77.204,56.657 77.281,56.58C77.358,56.504 77.483,56.504 77.559,56.582C77.636,56.659 77.635,56.784 77.558,56.86C77.481,56.938 77.356,56.937 77.279,56.859Z" style="fill:rgb(188,190,192);fill-rule:nonzero;"/>
                    <path d="M86.708,44.884C86.649,44.824 86.649,44.729 86.709,44.67C86.769,44.611 86.864,44.611 86.923,44.671C86.982,44.731 86.981,44.826 86.922,44.885C86.862,44.943 86.767,44.942 86.708,44.884Z" style="fill:rgb(188,190,192);fill-rule:nonzero;"/>
                    <path d="M81.862,42.412C81.777,42.326 81.777,42.187 81.863,42.103C81.949,42.018 82.088,42.019 82.173,42.104C82.259,42.19 82.258,42.329 82.172,42.414C82.086,42.499 81.947,42.498 81.862,42.412Z" style="fill:rgb(188,190,192);fill-rule:nonzero;"/>
                    <path d="M86.758,44.835C86.726,44.803 86.726,44.751 86.758,44.72C86.79,44.688 86.842,44.688 86.874,44.72C86.905,44.752 86.905,44.804 86.873,44.836C86.841,44.867 86.789,44.867 86.758,44.835Z" style="fill:rgb(188,190,192);fill-rule:nonzero;"/>
                    <path d="M86.681,44.911C86.607,44.837 86.607,44.716 86.682,44.643C86.756,44.569 86.876,44.569 86.951,44.644C87.025,44.718 87.024,44.839 86.95,44.913C86.875,44.986 86.754,44.985 86.681,44.911Z" style="fill:rgb(188,190,192);fill-rule:nonzero;"/>
                    <path d="M86.659,44.933C86.574,44.846 86.574,44.707 86.661,44.622C86.747,44.536 86.887,44.537 86.972,44.624C87.058,44.71 87.057,44.85 86.971,44.935C86.884,45.02 86.745,45.019 86.659,44.933Z" style="fill:rgb(188,190,192);fill-rule:nonzero;"/>
                    <path d="M81.587,45.422C81.509,45.343 81.509,45.215 81.588,45.136C81.668,45.058 81.796,45.059 81.874,45.138C81.952,45.217 81.952,45.345 81.873,45.423C81.793,45.502 81.666,45.501 81.587,45.422Z" style="fill:rgb(188,190,192);fill-rule:nonzero;"/>
                    <path d="M81.939,42.335C81.896,42.292 81.896,42.222 81.939,42.179C81.983,42.136 82.053,42.136 82.096,42.179C82.139,42.222 82.138,42.293 82.095,42.336C82.053,42.379 81.982,42.379 81.939,42.335Z" style="fill:rgb(188,190,192);fill-rule:nonzero;"/>
                    <path d="M81.642,45.367C81.593,45.318 81.594,45.239 81.643,45.19C81.692,45.141 81.772,45.142 81.82,45.191C81.869,45.24 81.869,45.319 81.82,45.368C81.769,45.417 81.69,45.417 81.642,45.367Z" style="fill:rgb(188,190,192);fill-rule:nonzero;"/>
                    <path d="M81.646,45.363C81.6,45.316 81.6,45.241 81.647,45.195C81.693,45.149 81.768,45.15 81.814,45.196C81.86,45.243 81.86,45.317 81.813,45.363C81.768,45.41 81.692,45.409 81.646,45.363Z" style="fill:rgb(188,190,192);fill-rule:nonzero;"/>
                    <path d="M86.749,44.843C86.713,44.807 86.713,44.747 86.75,44.711C86.786,44.675 86.846,44.675 86.882,44.712C86.918,44.748 86.918,44.808 86.881,44.844C86.845,44.88 86.785,44.88 86.749,44.843Z" style="fill:rgb(188,190,192);fill-rule:nonzero;"/>
                    <path d="M81.896,42.378C81.829,42.311 81.83,42.202 81.897,42.135C81.964,42.069 82.073,42.069 82.139,42.136C82.205,42.203 82.204,42.312 82.138,42.378C82.071,42.446 81.963,42.445 81.896,42.378Z" style="fill:rgb(188,190,192);fill-rule:nonzero;"/>
                    <path d="M81.571,45.438C81.484,45.35 81.485,45.208 81.573,45.121C81.661,45.034 81.802,45.035 81.889,45.123C81.976,45.211 81.976,45.352 81.888,45.439C81.801,45.525 81.659,45.525 81.571,45.438Z" style="fill:rgb(188,190,192);fill-rule:nonzero;"/>
                    <path d="M72.435,45.541C72.363,45.468 72.363,45.35 72.436,45.276C72.509,45.204 72.627,45.205 72.701,45.278C72.773,45.351 72.772,45.469 72.699,45.542C72.626,45.614 72.508,45.614 72.435,45.541Z" style="fill:rgb(188,190,192);fill-rule:nonzero;"/>
                    <path d="M69.675,47.084C69.617,47.025 69.617,46.932 69.676,46.874C69.735,46.815 69.828,46.816 69.886,46.874C69.944,46.933 69.944,47.026 69.885,47.084C69.826,47.143 69.732,47.142 69.675,47.084Z" style="fill:rgb(188,190,192);fill-rule:nonzero;"/>
                    <path d="M72.43,45.547C72.354,45.47 72.355,45.347 72.431,45.271C72.507,45.196 72.631,45.196 72.706,45.273C72.782,45.349 72.781,45.472 72.705,45.548C72.629,45.624 72.505,45.623 72.43,45.547Z" style="fill:rgb(188,190,192);fill-rule:nonzero;"/>
                    <path d="M72.397,45.579C72.303,45.484 72.303,45.332 72.398,45.238C72.493,45.144 72.645,45.145 72.739,45.24C72.833,45.334 72.832,45.487 72.738,45.58C72.644,45.674 72.49,45.674 72.397,45.579Z" style="fill:rgb(188,190,192);fill-rule:nonzero;"/>
                    <path d="M81.648,45.36C81.603,45.315 81.604,45.242 81.649,45.198C81.694,45.153 81.767,45.153 81.812,45.198C81.857,45.244 81.856,45.316 81.811,45.361C81.767,45.406 81.693,45.406 81.648,45.36Z" style="fill:rgb(188,190,192);fill-rule:nonzero;"/>
                    <path d="M72.48,45.495C72.433,45.447 72.433,45.37 72.481,45.322C72.529,45.274 72.607,45.275 72.654,45.323C72.702,45.371 72.702,45.448 72.654,45.496C72.605,45.544 72.528,45.544 72.48,45.495Z" style="fill:rgb(188,190,192);fill-rule:nonzero;"/>
                    <path d="M76.104,53.224C76.025,53.144 76.025,53.014 76.105,52.935C76.185,52.856 76.315,52.856 76.394,52.936C76.473,53.016 76.473,53.146 76.393,53.225C76.313,53.304 76.184,53.304 76.104,53.224Z" style="fill:rgb(188,190,192);fill-rule:nonzero;"/>
                    <path d="M72.437,45.539C72.366,45.467 72.366,45.351 72.438,45.278C72.51,45.207 72.627,45.208 72.699,45.28C72.77,45.352 72.769,45.468 72.697,45.54C72.625,45.611 72.509,45.611 72.437,45.539Z" style="fill:rgb(188,190,192);fill-rule:nonzero;"/>
                    <path d="M69.684,47.074C69.631,47.021 69.632,46.935 69.685,46.883C69.739,46.83 69.825,46.83 69.877,46.884C69.93,46.937 69.929,47.023 69.876,47.075C69.822,47.128 69.736,47.128 69.684,47.074Z" style="fill:rgb(188,190,192);fill-rule:nonzero;"/>
                    <path d="M76.169,53.159C76.125,53.114 76.125,53.043 76.17,52.999C76.214,52.956 76.285,52.956 76.329,53C76.373,53.044 76.373,53.116 76.328,53.16C76.284,53.203 76.213,53.203 76.169,53.159Z" style="fill:rgb(188,190,192);fill-rule:nonzero;"/>
                    <path d="M81.815,42.458C81.705,42.347 81.706,42.167 81.817,42.056C81.929,41.946 82.109,41.947 82.219,42.058C82.329,42.169 82.328,42.35 82.217,42.46C82.106,42.57 81.927,42.569 81.815,42.458Z" style="fill:rgb(188,190,192);fill-rule:nonzero;"/>
                    <path d="M81.895,42.378C81.829,42.311 81.829,42.202 81.896,42.136C81.963,42.069 82.072,42.07 82.138,42.137C82.205,42.204 82.204,42.313 82.137,42.38C82.071,42.446 81.962,42.446 81.895,42.378Z" style="fill:rgb(188,190,192);fill-rule:nonzero;"/>
                    <path d="M81.935,42.34C81.889,42.294 81.889,42.22 81.936,42.174C81.982,42.129 82.056,42.129 82.102,42.175C82.147,42.221 82.147,42.295 82.101,42.341C82.055,42.387 81.979,42.386 81.935,42.34Z" style="fill:rgb(188,190,192);fill-rule:nonzero;"/>
                    <path d="M81.898,42.376C81.833,42.31 81.834,42.204 81.899,42.139C81.964,42.074 82.071,42.075 82.136,42.14C82.201,42.206 82.201,42.312 82.135,42.377C82.069,42.442 81.964,42.441 81.898,42.376Z" style="fill:rgb(188,190,192);fill-rule:nonzero;"/>
                    <path d="M81.894,42.381C81.826,42.312 81.826,42.201 81.895,42.133C81.963,42.065 82.075,42.065 82.143,42.134C82.211,42.203 82.21,42.314 82.142,42.382C82.072,42.45 81.961,42.45 81.894,42.381Z" style="fill:rgb(188,190,192);fill-rule:nonzero;"/>
                    <path d="M69.599,47.159C69.499,47.058 69.499,46.896 69.6,46.797C69.701,46.697 69.863,46.698 69.962,46.799C70.062,46.9 70.062,47.062 69.961,47.161C69.86,47.261 69.698,47.26 69.599,47.159Z" style="fill:rgb(188,190,192);fill-rule:nonzero;"/>
                    <path d="M66.278,50.594C66.2,50.515 66.2,50.387 66.279,50.308C66.359,50.23 66.487,50.23 66.565,50.309C66.644,50.389 66.643,50.517 66.564,50.595C66.485,50.674 66.357,50.673 66.278,50.594Z" style="fill:rgb(188,190,192);fill-rule:nonzero;"/>
                    <path d="M69.663,47.095C69.6,47.031 69.6,46.927 69.664,46.863C69.728,46.8 69.833,46.8 69.896,46.864C69.96,46.928 69.96,47.033 69.895,47.096C69.831,47.159 69.727,47.159 69.663,47.095Z" style="fill:rgb(188,190,192);fill-rule:nonzero;"/>
                    <path d="M69.586,47.171C69.481,47.065 69.481,46.892 69.588,46.785C69.695,46.679 69.868,46.68 69.975,46.787C70.08,46.894 70.079,47.067 69.973,47.173C69.865,47.279 69.692,47.278 69.586,47.171Z" style="fill:rgb(188,190,192);fill-rule:nonzero;"/>
                    <path d="M69.657,47.101C69.59,47.034 69.59,46.924 69.658,46.857C69.725,46.79 69.836,46.79 69.902,46.858C69.969,46.925 69.969,47.036 69.901,47.102C69.834,47.169 69.725,47.169 69.657,47.101Z" style="fill:rgb(188,190,192);fill-rule:nonzero;"/>
                    <path d="M64.363,43.148C64.313,43.098 64.314,43.017 64.364,42.967C64.414,42.917 64.495,42.918 64.545,42.968C64.595,43.018 64.595,43.099 64.544,43.149C64.494,43.198 64.413,43.198 64.363,43.148Z" style="fill:rgb(188,190,192);fill-rule:nonzero;"/>
                    <path d="M66.259,50.613C66.169,50.523 66.169,50.377 66.26,50.287C66.351,50.198 66.496,50.198 66.586,50.289C66.676,50.38 66.675,50.525 66.584,50.615C66.494,50.705 66.348,50.704 66.259,50.613Z" style="fill:rgb(188,190,192);fill-rule:nonzero;"/>
                    <path d="M64.297,43.213C64.211,43.126 64.212,42.986 64.299,42.9C64.386,42.814 64.526,42.814 64.612,42.901C64.698,42.987 64.697,43.128 64.61,43.214C64.523,43.301 64.383,43.3 64.297,43.213Z" style="fill:rgb(188,190,192);fill-rule:nonzero;"/>
                    <path d="M66.253,50.619C66.16,50.525 66.16,50.375 66.254,50.282C66.348,50.189 66.499,50.189 66.592,50.283C66.685,50.377 66.684,50.528 66.59,50.62C66.496,50.713 66.346,50.713 66.253,50.619Z" style="fill:rgb(188,190,192);fill-rule:nonzero;"/>
                    <path d="M64.349,43.162C64.291,43.104 64.292,43.01 64.35,42.952C64.409,42.894 64.502,42.895 64.56,42.953C64.618,43.011 64.618,43.105 64.559,43.162C64.501,43.221 64.406,43.22 64.349,43.162Z" style="fill:rgb(188,190,192);fill-rule:nonzero;"/>
                    <path d="M64.374,43.137C64.331,43.093 64.331,43.021 64.375,42.978C64.419,42.934 64.49,42.935 64.534,42.978C64.578,43.022 64.577,43.093 64.533,43.137C64.489,43.181 64.418,43.181 64.374,43.137Z" style="fill:rgb(188,190,192);fill-rule:nonzero;"/>
                    <path d="M64.193,43.317C64.049,43.173 64.051,42.94 64.195,42.797C64.34,42.654 64.572,42.655 64.716,42.799C64.859,42.944 64.858,43.176 64.713,43.319C64.569,43.462 64.336,43.46 64.193,43.317Z" style="fill:rgb(188,190,192);fill-rule:nonzero;"/>
                    <path d="M64.309,43.202C64.229,43.122 64.23,42.992 64.31,42.912C64.391,42.832 64.521,42.833 64.6,42.913C64.68,42.993 64.68,43.123 64.599,43.203C64.519,43.283 64.389,43.283 64.309,43.202Z" style="fill:rgb(188,190,192);fill-rule:nonzero;"/>
                    <path d="M57.156,42.481C57.088,42.413 57.089,42.302 57.157,42.234C57.226,42.166 57.337,42.167 57.405,42.235C57.473,42.303 57.472,42.414 57.404,42.482C57.334,42.55 57.224,42.549 57.156,42.481Z" style="fill:rgb(188,190,192);fill-rule:nonzero;"/>
                    <path d="M57.141,42.496C57.065,42.419 57.066,42.296 57.142,42.22C57.219,42.144 57.342,42.145 57.417,42.221C57.493,42.298 57.493,42.421 57.416,42.497C57.341,42.572 57.217,42.572 57.141,42.496Z" style="fill:rgb(188,190,192);fill-rule:nonzero;"/>
                    <path d="M57.205,42.433C57.164,42.392 57.164,42.324 57.206,42.283C57.248,42.241 57.314,42.242 57.356,42.283C57.397,42.325 57.397,42.392 57.355,42.433C57.313,42.475 57.246,42.474 57.205,42.433Z" style="fill:rgb(188,190,192);fill-rule:nonzero;"/>
                    <path d="M64.331,43.18C64.264,43.112 64.264,43.002 64.332,42.934C64.4,42.867 64.51,42.867 64.577,42.935C64.645,43.003 64.644,43.113 64.576,43.181C64.509,43.249 64.398,43.248 64.331,43.18Z" style="fill:rgb(188,190,192);fill-rule:nonzero;"/>
                    <path d="M57.17,42.466C57.11,42.406 57.111,42.308 57.171,42.249C57.231,42.189 57.329,42.189 57.389,42.25C57.449,42.31 57.449,42.408 57.388,42.467C57.328,42.527 57.23,42.527 57.17,42.466Z" style="fill:rgb(188,190,192);fill-rule:nonzero;"/>
                </g>
            </g>
        </g>
    </g>
</svg>
